<svg id="Calque_1" data-name="Calque 1" xmlns="http://www.w3.org/2000/svg" viewBox="0 0 1080 1080"><defs><style>.cls-1{fill:#1a6c30;}.cls-2{fill:#ffc200;}.cls-3{fill:none;}.cls-4{fill:#fff;}.cls-5{isolation:isolate;}</style></defs><path class="cls-1" d="M540.05,631.66a92.77,92.77,0,1,1,92.77-92.77A92.87,92.87,0,0,1,540.05,631.66Zm0-183.53a90.77,90.77,0,1,0,90.77,90.76A90.87,90.87,0,0,0,540.05,448.13Z"/><path class="cls-1" d="M540.05,604a65.12,65.12,0,1,1,65.12-65.12A65.19,65.19,0,0,1,540.05,604Zm0-128.23a63.12,63.12,0,1,0,63.12,63.11A63.18,63.18,0,0,0,540.05,475.78Z"/><polygon class="cls-1" points="541.44 535.71 539.46 535.46 554.66 417.78 554.73 416.81 556.73 416.96 556.65 417.98 541.44 535.71"/><polygon class="cls-1" points="539.52 535.97 505.26 453.79 505.26 453.71 493.29 425.14 495.13 424.38 495.53 425.32 507.26 453.39 541.37 535.2 539.52 535.97"/><polygon class="cls-1" points="539.84 536.38 490.56 498.78 490.22 498.57 467.85 481.49 467.85 481.42 443.41 462.8 444.66 461.24 445.45 461.87 469.85 480.43 469.85 480.5 491.16 496.78 491.51 496.98 541.05 534.79 539.84 536.38"/><polygon class="cls-1" points="540.32 536.58 476.83 528.39 449.42 524.92 418.36 520.9 418.67 518.92 419.69 519.08 449.68 522.94 477.09 526.4 540.58 534.59 540.32 536.58"/><polygon class="cls-1" points="425.83 584.56 425.06 582.71 479.49 560.02 540.06 534.66 540.83 536.51 480.26 561.87 454.66 572.51 425.83 584.56"/><polygon class="cls-1" points="464.93 636.29 463.31 635.11 463.94 634.25 499.09 588.23 539.65 534.98 541.24 536.19 500.68 589.44 464.93 636.29"/><polygon class="cls-1" points="525.38 660.98 523.38 660.83 523.46 659.8 539.46 535.46 541.44 535.71 532.85 602.59 525.45 660.01 525.38 660.98"/><polygon class="cls-1" points="588.05 652.15 565.36 597.8 539.52 535.97 541.37 535.2 567.21 597.03 577.84 622.55 589.89 651.38 588.05 652.15"/><polygon class="cls-1" points="639.03 612.01 638.16 611.38 592.14 576.24 539.84 536.38 541.05 534.79 593.36 574.65 640.21 610.39 639.03 612.01"/><polygon class="cls-1" points="662.31 552.33 661.28 552.17 540.32 536.58 540.58 534.59 661.56 550.19 662.61 550.35 662.31 552.33"/><polygon class="cls-1" points="540.83 536.51 540.06 534.66 597.72 510.64 623.24 499.93 652.07 487.95 652.84 489.8 624.01 501.77 598.49 512.48 540.83 536.51"/><polygon class="cls-1" points="541.24 536.19 539.65 534.98 611.96 440.3 612.58 439.45 614.2 440.63 613.57 441.49 541.24 536.19"/><path class="cls-1" d="M717.52,523.3a178.15,178.15,0,0,0-354.93,0q-.7,7.68-.71,15.59a173.92,173.92,0,0,0,1.58,24C375.19,650,449.79,717.07,540,717.07S704.76,650,716.5,562.92a175.48,175.48,0,0,0,1.57-24A127.88,127.88,0,0,0,717.52,523.3ZM540.05,660.83A121.8,121.8,0,0,1,418.12,539.05v-.23a129.6,129.6,0,0,1,.95-15.6,122,122,0,0,1,242,0,129.6,129.6,0,0,1,1,15.6,121.86,121.86,0,0,1-121.78,122Z"/><path class="cls-2" d="M540,720.57A181.71,181.71,0,0,1,360,563.39a178.77,178.77,0,0,1-1.61-24.5c0-5.36.24-10.71.72-15.91A181.65,181.65,0,0,1,721,523a131.53,131.53,0,0,1,.56,16A178.24,178.24,0,0,1,720,563.4,181.71,181.71,0,0,1,540,720.57Zm.07-356.35c-89.83,0-166.25,70-174,159.38-.47,5-.7,10.15-.7,15.29a173.07,173.07,0,0,0,1.54,23.55c11.62,86.16,86,151.13,173.06,151.13s161.43-65,173-151.12a173.33,173.33,0,0,0,1.54-23.56v-.1a123,123,0,0,0-.54-15.17v0C706.3,434.23,629.88,364.22,540.05,364.22Zm-.14,300.11A125.3,125.3,0,0,1,414.62,539.05v-.23a134.4,134.4,0,0,1,1-16,125.49,125.49,0,0,1,248.92,0,133.21,133.21,0,0,1,1,16.05A125.37,125.37,0,0,1,540.22,664.33h-.31Zm-.16-244A118.51,118.51,0,0,0,422.54,523.67a125.86,125.86,0,0,0-.92,15.15v.23A118.3,118.3,0,0,0,539.91,657.33h.3A118.37,118.37,0,0,0,658.49,538.82a126.6,126.6,0,0,0-.92-15.18A118.55,118.55,0,0,0,555.2,421.3,120,120,0,0,0,539.75,420.3Z"/><path class="cls-2" d="M622.13,513.29a2.13,2.13,0,0,1-.08.71l-3.62,11.74-.79,2.52a6.89,6.89,0,0,1-2.13,3.39l-18.9,17.72a7.3,7.3,0,0,0-2.28,5.83l.15,2,1.26,21.26.08,1a5.12,5.12,0,0,1-.47,2.6,4.17,4.17,0,0,1-.79,1.26l-.23.24a3.57,3.57,0,0,1-1.19.94l-.07.08-7.41,4.25a7.2,7.2,0,0,0-3.62,6.23v6.53a7.27,7.27,0,0,1-2.29,5.36l-13,12.68-4.89,4.65a6.8,6.8,0,0,1-3.86,1.81l-11.81,1.34a3.9,3.9,0,0,1-4.26-3.07,163.75,163.75,0,0,0-7.64-25.05,110.46,110.46,0,0,0-6-12.76,7.84,7.84,0,0,1-.4-6.62l2.52-6.54c.08-.23.16-.55.24-.86a7.5,7.5,0,0,0-.47-4.89l-9.85-20a8.81,8.81,0,0,1-.63-5.83l.47-1.89.87-3.31a5.77,5.77,0,0,0-2.6-6.3,3,3,0,0,0-.71-.4c-.86-.39-2-.78-3-1.18s-2.28-.78-3.62-1.18c-.87-.23-1.89-.47-2.84-.71s-1.89-.39-2.83-.55-2.21-.31-3.39-.47c-.47,0-.87-.08-1.34-.08-1.18-.08-2.44-.16-3.7-.16a53.45,53.45,0,0,0-11.74,1.34l-1,.24-1.26.23c-.24,0-.56.08-.79.08-.71,0-1.42-.08-2.13-.15l-.31-.08L479,527l-.71-.24a4.92,4.92,0,0,1-.95-.47,7,7,0,0,1-2.12-1.65l-.71-.79-.32-.32-4.09-4.33-3.7-3.86-5.75-6.06a7.36,7.36,0,0,1-.79-.95,9.26,9.26,0,0,1-1.58-3.62,7.64,7.64,0,0,1-.15-1.34V503a5.34,5.34,0,0,1,.15-1.58L460,491.08l.47-2.91,1.1-6.38a11,11,0,0,1,1.81-4.57,13.93,13.93,0,0,1,2-2.29l9.69-8.74L486.33,456l5.91-5.28a1.49,1.49,0,0,1,.95-.39H524a1.43,1.43,0,0,1,1.41,1.5l-.15,3.78a4.13,4.13,0,0,0,2.44,3.86L536,463l7.64,3.31a1,1,0,0,0,1.26-.47v-.08l2.2-5.6a2.67,2.67,0,0,1,3.31-1.49l1.26.39,16.15,5.36,4.57,1.57a6.18,6.18,0,0,1,3.39,2.76l5.43,9.14,10.16,16.93,9,15a6.35,6.35,0,0,0,6,3.07l14-1.1A1.6,1.6,0,0,1,622.13,513.29Z"/><path class="cls-1" d="M531.39,503.68l-.47.56,2.75,6.77v.24l-6.53,10.47-.32.55-1.73-.78h0l-1.1-.56-.4.4-3.7,3.7c0,.08-.08.08-.08.16l-.63,2.83v1.34c0,.16-.08.32-.24.32h-.15c-5.12-2.84-12.45-3.15-18.51-3.47-6.54-.31-12.29.4-14.5,1.11a9.14,9.14,0,0,1-2.91.47h-.47c-.79-.08-1.58-.16-2.37-.32-.08,0-.23-.08-.31-.08l-.79-.23-.71-.24c-.31-.16-.63-.23-.94-.39h0c-.16-.16-1.26-1-2.84-2.37h0c-1.26-1.1-2.91-2.59-4.65-4.25a73.66,73.66,0,0,1-10-11.26h0a12.39,12.39,0,0,1-1.89-5.12h0c-.95-6.7,4.25-15.28,4.25-15.28h0l7.09-.4c.16,0,.32-.16.24-.31v-.08l-1.26-3.55a.28.28,0,0,1,.16-.39h2.44a.34.34,0,0,0,.31-.32v-6.61a.34.34,0,0,1,.32-.32h7a.74.74,0,0,0,.79-.78v-.16a.79.79,0,0,1,.78-.79.61.61,0,0,1,.4.16l23.78,15.75c.08,0,.08.08.16.08h2.44a.34.34,0,0,1,.32.32v2.2a.34.34,0,0,0,.31.32h2l.71-.32.71-.31,1.81-.71.48-.32.63-.39,13-7.64c.08,0,.08-.08.16,0h5.2c.08,0,.16,0,.16.08l4,4a.25.25,0,0,1,.08.16v10.16c0,.08,0,.16-.08.16l-4.88,5.43Z"/><path class="cls-3" d="M622.13,513.29a2.13,2.13,0,0,1-.08.71l-3.62,11.74-.79,2.52a6.89,6.89,0,0,1-2.13,3.39l-18.9,17.72a7.3,7.3,0,0,0-2.28,5.83l.15,2,1.26,21.26.08,1a5.12,5.12,0,0,1-.47,2.6,4.17,4.17,0,0,1-.79,1.26l-.23.24a3.57,3.57,0,0,1-1.19.94l-.07.08-7.41,4.25a7.2,7.2,0,0,0-3.62,6.23v6.53a7.27,7.27,0,0,1-2.29,5.36l-13,12.68-4.89,4.65a6.8,6.8,0,0,1-3.86,1.81l-11.81,1.34a3.9,3.9,0,0,1-4.26-3.07,163.75,163.75,0,0,0-7.64-25.05,110.46,110.46,0,0,0-6-12.76,7.84,7.84,0,0,1-.4-6.62l2.52-6.54c.08-.23.16-.55.24-.86a7.5,7.5,0,0,0-.47-4.89l-9.85-20a8.81,8.81,0,0,1-.63-5.83l.47-1.89.87-3.31a5.77,5.77,0,0,0-2.6-6.3,3,3,0,0,0-.71-.4c-.86-.39-2-.78-3-1.18s-2.28-.78-3.62-1.18c-.87-.23-1.89-.47-2.84-.71s-1.89-.39-2.83-.55-2.21-.31-3.39-.47c-.47,0-.87-.08-1.34-.08-1.18-.08-2.44-.16-3.7-.16a53.45,53.45,0,0,0-11.74,1.34l-1,.24-1.26.23c-.24,0-.56.08-.79.08-.71,0-1.42-.08-2.13-.15l-.31-.08L479,527l-.71-.24a4.92,4.92,0,0,1-.95-.47,7,7,0,0,1-2.12-1.65l-.71-.79-.32-.32-4.09-4.33-3.7-3.86-5.75-6.06a7.36,7.36,0,0,1-.79-.95,9.26,9.26,0,0,1-1.58-3.62,7.64,7.64,0,0,1-.15-1.34V503a5.34,5.34,0,0,1,.15-1.58L460,491.08l.47-2.91,1.1-6.38a11,11,0,0,1,1.81-4.57,13.93,13.93,0,0,1,2-2.29l9.69-8.74L486.33,456l5.91-5.28a1.49,1.49,0,0,1,.95-.39H524a1.43,1.43,0,0,1,1.41,1.5l-.15,3.78a4.13,4.13,0,0,0,2.44,3.86L536,463l7.64,3.31a1,1,0,0,0,1.26-.47v-.08l2.2-5.6a2.67,2.67,0,0,1,3.31-1.49l1.26.39,16.15,5.36,4.57,1.57a6.18,6.18,0,0,1,3.39,2.76l5.43,9.14,10.16,16.93,9,15a6.35,6.35,0,0,0,6,3.07l14-1.1A1.6,1.6,0,0,1,622.13,513.29Z"/><path class="cls-4" d="M623.08,511.4a3.5,3.5,0,0,0-2.92-1.26l-13.94,1.19a4.81,4.81,0,0,1-3.39-1.11,3.42,3.42,0,0,1-.94-1.18l-5.6-9.37L596,499l-18.75-31.12a8.38,8.38,0,0,0-4.25-3.46l-22.06-7.25a4.38,4.38,0,0,0-5.35,2.44l-2,4.89-15.36-6.7a2.41,2.41,0,0,1-1.42-2.2l.16-3.78a3.15,3.15,0,0,0-3.07-3.23H493a2.79,2.79,0,0,0-2,.78L464,473.67a14.24,14.24,0,0,0-2.2,2.6,13.44,13.44,0,0,0-2,5.2l-1.65,9.77-.79,4.73-.47,2.91-.4,2.05a15.11,15.11,0,0,0-.16,2v.31a6,6,0,0,0,.24,1.66,9.9,9.9,0,0,0,1.58,3.86l.15.31.32.39.31.4.08.08.47.47,10.64,11.26,2.83,3,1,1.1a10.1,10.1,0,0,0,2.28,1.81l.24.16c.39.16.79.39,1.18.55l.55.24.95.23h0l.55.16a12.61,12.61,0,0,0,2.44.24,3.86,3.86,0,0,0,.95-.08l1.49-.24,1-.23a54.21,54.21,0,0,1,7.08-1.11,40.43,40.43,0,0,1,4.26-.15h1.34a15.65,15.65,0,0,1,1.81.07h.47l1.26.08c1.1.16,2.29.24,3.31.48l.47.07c.79.16,1.5.24,2.29.4s2,.47,2.75.71c1.26.39,2.45.71,3.55,1.1s2,.71,2.91,1.18c.16.08.4.16.55.24a4.09,4.09,0,0,1,1.82,4.41l-1.34,5.2a10.72,10.72,0,0,0,.71,7l9.84,20.08a5.74,5.74,0,0,1,.4,3.78c-.08.16-.08.4-.16.56l-2.52,6.53a9.47,9.47,0,0,0,.55,8.12,101.91,101.91,0,0,1,5.83,12.52l.16.39c2.12,5.36,3.78,10.56,5,14.89h0l.08.16h0v.16c0,.08,0,.15.07.15h0c1.19,4,1.89,7.25,2.29,9.06a5.55,5.55,0,0,0,5.43,4.41h.63l11.82-1.34a8.75,8.75,0,0,0,4.88-2.28l17.88-17.41a9.27,9.27,0,0,0,2.76-6.54V595a5.5,5.5,0,0,1,2.76-4.73L594,586l.24-.16c.47-.32.94-.71,1.41-1.1a2.12,2.12,0,0,0,.4-.48,6.29,6.29,0,0,0,.94-1.57,6.94,6.94,0,0,0,.63-3.39l-1.33-22-.16-2a5.83,5.83,0,0,1,1.81-4.57L617,532.91a9.65,9.65,0,0,0,2.6-4.18l4.33-14.33A4.74,4.74,0,0,0,623.08,511.4Zm-30.49,44,1.5,24.1a4.55,4.55,0,0,1-.32,1.81,5.68,5.68,0,0,1-.47.79l-.23.23a3,3,0,0,1-.79.63l-7.49,4.34a9,9,0,0,0-4.48,7.64v6.53a5.92,5.92,0,0,1-1.74,4.18L560.77,623a5.11,5.11,0,0,1-2.91,1.42L546,625.78A2.2,2.2,0,0,1,543.6,624c-.55-2.6-1.81-7.95-3.86-14.49h0a3.83,3.83,0,0,0-.32-.87h0v-.08c-.07-.15-.07-.39-.15-.55-.95-2.91-2-6.06-3.31-9.29l-.16-.32a106.89,106.89,0,0,0-5.91-12.6,6,6,0,0,1-.31-5.2l2.6-6.62c.08-.31.23-.63.31-.94a8.72,8.72,0,0,0-.63-6l-9.84-20a7,7,0,0,1-.48-4.73l1.34-5.2a7.36,7.36,0,0,0-3.23-8,.58.58,0,0,0-.31-.16c-.24-.16-.47-.24-.71-.39-1.1-.48-2.13-.87-3.07-1.19s-2.37-.78-3.78-1.18l-2.92-.71a3.24,3.24,0,0,0-.86-.15c-.63-.16-1.34-.24-2.05-.4l-2-.31-1.42-.16h-.24c-.47,0-.94-.08-1.41-.08-1-.08-2.37-.16-3.86-.16h-2a56,56,0,0,0-10.24,1.34l-.95.24a4.55,4.55,0,0,1-1.1.16h-1.34a3.86,3.86,0,0,1-.94-.16l-.32-.08-.55-.16-.32-.16c-.07,0-.23-.07-.31-.07l-.16-.08c-.16-.08-.39-.16-.55-.24l-.24-.16a1.91,1.91,0,0,1-.39-.23,7.86,7.86,0,0,1-1.26-1l-.79-.86-3.23-3.39-10.63-11.11c-.16-.15-.24-.31-.4-.47l-.55-.63-.23-.47a7.63,7.63,0,0,1-.87-2.37,4.7,4.7,0,0,1-.08-1.1,5.86,5.86,0,0,1,.08-1.18.57.57,0,0,1,.08-.39l1.89-11,.39-2.13h0l1.11-6.3a9.62,9.62,0,0,1,1.57-3.86,12.75,12.75,0,0,1,1.66-2l26.86-24.26h30.48l-.16,3.55a5.69,5.69,0,0,0,3.39,5.43L542.89,468a2.31,2.31,0,0,0,2.05,0,2.52,2.52,0,0,0,1.49-1.49l2.21-5.6a.94.94,0,0,1,1.18-.55l22,7.25a5.63,5.63,0,0,1,2.52,2L592,499.12l.55.86,6.31,10.64a8.1,8.1,0,0,0,7.56,3.86l13.94-1.11L616,527.63a6,6,0,0,1-1.66,2.68l-19,17.8a9.64,9.64,0,0,0-2.76,7.33Zm27.81-41.91h0L622,514Z"/><path class="cls-2" d="M617.64,588.75a21.22,21.22,0,0,1-2.28,6.38c-.32.63-.71,1.42-1.11,2.37-5,10.71-7.4,14.25-9.68,14.25a5.23,5.23,0,0,1-4.49-2.52c-2-3.07-1.66-8.42-.16-11.26.86-1.65,1.26-5.83,1.57-8.82.08-1.18.24-2.36.32-3.23a3.79,3.79,0,0,1,2.83-3.15,11.2,11.2,0,0,0,3.71-1.81,18.77,18.77,0,0,0,4.72-5.44,2.69,2.69,0,0,1,3.7-.87,2.32,2.32,0,0,1,1,1.11C619,578.2,619,582.3,617.64,588.75Z"/><path class="cls-4" d="M617.88,575.6a2.29,2.29,0,0,0-1-1.1,2.68,2.68,0,0,0-3.7.86,17.62,17.62,0,0,1-4.72,5.44,11.2,11.2,0,0,1-3.71,1.81,3.79,3.79,0,0,0-2.83,3.15,31.74,31.74,0,0,0-.32,3.23c-.31,3-.71,7.17-1.57,8.82-1.42,2.84-1.74,8.19.15,11.27a5,5,0,0,0,4.49,2.52c2.29,0,4.65-3.47,9.69-14.26.48-1,.79-1.73,1.11-2.36a19.94,19.94,0,0,0,2.28-6.38C619,582.3,619,578.2,617.88,575.6Zm-3.07,12.52a21.85,21.85,0,0,1-2,5.68c-.32.7-.71,1.41-1.18,2.44-4.49,9.53-6.38,12.13-7.17,12.6a2.19,2.19,0,0,1-1.89-1.18c-1.26-2-1-6.3,0-8.43s1.49-6.22,1.81-9.85c.16-1.18.24-2.36.31-3.15a1,1,0,0,1,.63-.71l.08-.07c2.21-.56,6.38-2.29,10-8.2C616,579.22,615.83,582.93,614.81,588.12Z"/><path class="cls-4" d="M472.31,501.32a1,1,0,0,1-.29-.71h0a1,1,0,0,1,.29-.7h0a1,1,0,0,1,.71-.3h0a1,1,0,0,1,.71.3h0a1,1,0,0,1,.29.7h0a1,1,0,0,1-.29.71h0a1,1,0,0,1-.71.29h0A1,1,0,0,1,472.31,501.32Z"/><path class="cls-4" d="M474.3,498a1,1,0,0,1-.55-1.31h0a1,1,0,0,1,1.3-.55h0a1,1,0,0,1,.55,1.3h0a1,1,0,0,1-.92.62h0A1,1,0,0,1,474.3,498Zm2-5.05a1,1,0,0,1-.55-1.3h0a1,1,0,0,1,1.3-.55h0a1,1,0,0,1,.55,1.3h0a1,1,0,0,1-.92.62h0A1,1,0,0,1,476.34,493Z"/><path class="cls-4" d="M513.05,515.64a1,1,0,0,1-.55-1.3h0a1,1,0,0,1,1.3-.55h0a1,1,0,0,1,.55,1.3h0a1,1,0,0,1-.93.62h0A1.06,1.06,0,0,1,513.05,515.64Zm2.05-5.05a1,1,0,0,1-.56-1.3h0a1,1,0,0,1,1.31-.55h0a1,1,0,0,1,.55,1.3h0a1,1,0,0,1-.93.63h0A1,1,0,0,1,515.1,510.59Z"/><path class="cls-4" d="M478.46,486.91a1,1,0,0,1-.29-.71h0a1,1,0,0,1,.29-.71h0a1,1,0,0,1,.71-.29h0a1,1,0,0,1,.7.29h0a1,1,0,0,1,.3.71h0a1,1,0,0,1-.3.71h0a1,1,0,0,1-.7.29h0A1,1,0,0,1,478.46,486.91Z"/><path class="cls-4" d="M481.52,511.89a1,1,0,0,1,.86-1.12h0a1,1,0,0,1,1.12.86h0a1,1,0,0,1-.86,1.12h-.13A1,1,0,0,1,481.52,511.89Zm-.7-5.39a1,1,0,0,1,.86-1.12h0a1,1,0,0,1,1.12.86h0a1,1,0,0,1-.86,1.12h-.13A1,1,0,0,1,480.82,506.5ZM480.1,501h0a1,1,0,0,1,1-1h0a1,1,0,0,1,1,1h0a1,1,0,0,1-1,1h0A1,1,0,0,1,480.1,501Zm-.11-5.26a1,1,0,0,1,.79-1.17h0a1,1,0,0,1,1.17.79h0a1,1,0,0,1-.79,1.17h0l-.19,0h0A1,1,0,0,1,480,495.75Zm-1-5.35a1,1,0,0,1,.8-1.17h0a1,1,0,0,1,1.17.8h0a1,1,0,0,1-.8,1.17h0l-.19,0h0A1,1,0,0,1,479,490.4Z"/><path class="cls-4" d="M509.32,516a1,1,0,0,1,.25-1.39h0a1,1,0,0,1,1.39.25h0a1,1,0,0,1-.25,1.39h0a1,1,0,0,1-.57.18h0A1,1,0,0,1,509.32,516Zm-3.12-4.46a1,1,0,0,1,.25-1.39h0a1,1,0,0,1,1.39.25h0a1,1,0,0,1-.25,1.39h0a1,1,0,0,1-.57.18h0A1,1,0,0,1,506.2,511.5ZM503,507h0a1,1,0,0,1,.39-1.36h0a1,1,0,0,1,1.36.4h0a1,1,0,0,1-.39,1.36h0a1.07,1.07,0,0,1-.48.12h0A1,1,0,0,1,503,507Zm-2.52-4.62a1,1,0,0,1,.16-1.4h0a1,1,0,0,1,1.41.16h0a1,1,0,0,1-.16,1.41h0a1,1,0,0,1-.62.21h0A1,1,0,0,1,500.51,502.34Zm-3.38-4.26a1,1,0,0,1,.16-1.4h0a1,1,0,0,1,1.41.16h0a1,1,0,0,1-.16,1.4h0a1,1,0,0,1-.63.22h0A1,1,0,0,1,497.13,498.08Z"/><path class="cls-4" d="M482.71,519a1,1,0,0,1-.29-.7h0a1,1,0,0,1,.29-.71h0a1,1,0,0,1,.71-.3h0a1,1,0,0,1,.71.3h0a1,1,0,0,1,.29.71h0a1,1,0,0,1-.29.7h0a1,1,0,0,1-.71.3h0A1,1,0,0,1,482.71,519Z"/><path class="cls-4" d="M485.05,515.46a1,1,0,0,1-.49-1.32h0a1,1,0,0,1,1.33-.49h0a1,1,0,0,1,.49,1.32h0a1,1,0,0,1-.91.59h0A.92.92,0,0,1,485.05,515.46Zm2.26-5a1,1,0,0,1-.5-1.32h0a1,1,0,0,1,1.32-.5h0a1,1,0,0,1,.5,1.32h0a1,1,0,0,1-.91.59h0A1,1,0,0,1,487.31,510.51Z"/><path class="cls-4" d="M490.27,503.68a1,1,0,0,1-.29-.7h0a1,1,0,0,1,.29-.71h0A1,1,0,0,1,491,502h0a1,1,0,0,1,.71.29h0a1,1,0,0,1,.29.71h0a1,1,0,0,1-.29.7h0a1,1,0,0,1-.71.3h0A1,1,0,0,1,490.27,503.68Z"/><path class="cls-4" d="M493.47,500.35a1,1,0,0,1-.88-1.11h0a1,1,0,0,1,1.1-.88h0a1,1,0,0,1,.88,1.1h0a1,1,0,0,1-1,.89h-.11Z"/><path class="cls-4" d="M494.37,496a1,1,0,0,1-.29-.7h0a1,1,0,0,1,.29-.71h0a1,1,0,0,1,.71-.29h0a1,1,0,0,1,.71.29h0a1,1,0,0,1,.29.71h0a1,1,0,0,1-.29.7h0a1,1,0,0,1-.71.3h0A1,1,0,0,1,494.37,496Z"/><g class="cls-5"><path class="cls-4" d="M596.9,696.22l-14.06-30.63,5.25-2.41L613,678.55l-10.17-22.14,5.26-2.41,14.06,30.63L616.89,687,592,671.71l10.14,22.1Z"/></g><g class="cls-5"><path class="cls-4" d="M446.63,445a16.44,16.44,0,0,1-7.65,4.59,14.42,14.42,0,0,1-8.27-.35,22.21,22.21,0,0,1-12.91-12.82,14.68,14.68,0,0,1-.42-8.29,16.31,16.31,0,0,1,4.52-7.69,15.54,15.54,0,0,1,9-4.88,13.19,13.19,0,0,1,9.32,2.47l-4.48,4.51a7.77,7.77,0,0,0-5.11-1.21,8.78,8.78,0,0,0-5.09,2.81,9.83,9.83,0,0,0-2.81,4.91,9.42,9.42,0,0,0,.52,5.48,16.25,16.25,0,0,0,3.8,5.5,15.81,15.81,0,0,0,5.49,3.73,9.53,9.53,0,0,0,5.45.46,9.9,9.9,0,0,0,4.89-2.85,9.13,9.13,0,0,0,2.86-5,7.14,7.14,0,0,0-1.05-4.91l4.48-4.51A12.62,12.62,0,0,1,451.5,436,15.74,15.74,0,0,1,446.63,445Z"/></g><g class="cls-5"><path class="cls-4" d="M470.78,426a16.62,16.62,0,0,1-8.47,2.63,15.41,15.41,0,0,1-8.18-2.15A20.61,20.61,0,0,1,444.6,411a15.72,15.72,0,0,1,1.77-8.29,16.53,16.53,0,0,1,6.17-6.39,16.76,16.76,0,0,1,8.58-2.67,15.14,15.14,0,0,1,8.18,2.18,21,21,0,0,1,9.52,15.5,15,15,0,0,1-1.76,8.26A17,17,0,0,1,470.78,426Zm-2.68-4.46a10.51,10.51,0,0,0,4-4.2,9.56,9.56,0,0,0,.95-5.53,17,17,0,0,0-6.85-11.15,9.54,9.54,0,0,0-5.36-1.65,11.51,11.51,0,0,0-9.6,5.89,9.8,9.8,0,0,0-1,5.55,15.1,15.1,0,0,0,2.3,6.27,14.89,14.89,0,0,0,4.56,4.88,9.69,9.69,0,0,0,5.38,1.64A10.6,10.6,0,0,0,468.1,421.55Z"/></g><g class="cls-5"><path class="cls-4" d="M485.24,416.39l-9.58-32.31,6.55-1.94,16.53,17.79,4.05-23.9,6.6-2L519,406.38,513.44,408l-6.76-22.8-3.72,21-4.34,1.29L484,392l6.75,22.76Z"/></g><g class="cls-5"><path class="cls-4" d="M520.74,406.2l-.55-33.7,6.83-.11L538.16,394,548.49,372l6.89-.11.54,33.7-5.77.09-.39-23.78-9.22,19.22-4.52.07-9.89-18.86.38,23.74Z"/></g><g class="cls-5"><path class="cls-4" d="M558.23,406.72l7.18-32.93,21.26,4.64-1,4.56-15.61-3.4L568,389l14.2,3.1-1,4.47L567,393.51l-2.15,9.88,15.62,3.4-1,4.57Z"/></g><g class="cls-5"><path class="cls-4" d="M581.66,412l13.24-31L606,385.79a14.13,14.13,0,0,1,5.55,3.86,9.23,9.23,0,0,1,2.15,4.9,10.45,10.45,0,0,1-.87,5.26,10.32,10.32,0,0,1-3.11,4.11,9.11,9.11,0,0,1-5.05,1.87,14.35,14.35,0,0,1-6.79-1.38L592.23,402,587,414.3Zm12.25-14,5.45,2.33a6.36,6.36,0,0,0,5,.42,5.64,5.64,0,0,0,3-3.19,5.45,5.45,0,0,0,.21-4.28q-.78-2-3.79-3.27l-5.44-2.33Zm3.9,20.88-.66-16.46,5.76,2.46,1,16.59Z"/></g><g class="cls-5"><path class="cls-4" d="M617.24,431.28a16.41,16.41,0,0,1-5.82-6.81,14.57,14.57,0,0,1-1-8.25,22.28,22.28,0,0,1,10.55-14.92,14.71,14.71,0,0,1,8.14-1.79,16.38,16.38,0,0,1,8.37,3.19,15.65,15.65,0,0,1,6.34,8.13,13.32,13.32,0,0,1-.9,9.64l-5.21-3.69a7.82,7.82,0,0,0,.35-5.26,8.8,8.8,0,0,0-3.63-4.58,10,10,0,0,0-5.34-2,9.44,9.44,0,0,0-5.33,1.44,16.19,16.19,0,0,0-4.82,4.67,15.84,15.84,0,0,0-2.78,6.07,9.51,9.51,0,0,0,.45,5.47,9.89,9.89,0,0,0,3.63,4.37,9.28,9.28,0,0,0,5.46,2,7.23,7.23,0,0,0,4.69-1.86l5.22,3.68a12.72,12.72,0,0,1-8.58,3.8A15.85,15.85,0,0,1,617.24,431.28Z"/></g><g class="cls-5"><path class="cls-4" d="M630.29,440.68l24.6-22.92,14.79,15.89-3.4,3.17-10.87-11.67-7.07,6.58,9.89,10.62-3.34,3.11L645,434.84l-7.38,6.88,10.87,11.67-3.41,3.17Z"/></g><g class="cls-5"><path class="cls-4" d="M432.29,666.1l18.29-22.35-7.64-6.25,2.94-3.6L465.57,650l-2.94,3.59L455,647.36,436.7,669.71Z"/></g><g class="cls-5"><path class="cls-4" d="M450.62,680.06l16.17-29.65,10.64,5.8a14.3,14.3,0,0,1,5.16,4.38,9.27,9.27,0,0,1,1.68,5.09,10.58,10.58,0,0,1-1.36,5.17,10.46,10.46,0,0,1-3.51,3.81,9.14,9.14,0,0,1-5.21,1.39,14.58,14.58,0,0,1-6.64-2l-5.43-3-6.42,11.78Zm13.56-12.77,5.21,2.84a6.4,6.4,0,0,0,4.93.9,5.69,5.69,0,0,0,3.31-2.89,5.51,5.51,0,0,0,.61-4.26c-.39-1.37-1.54-2.57-3.46-3.62l-5.21-2.84Zm1.9,21.21L467,672l5.51,3-.62,16.66Z"/></g><g class="cls-5"><path class="cls-4" d="M477.65,694.28l21.4-28.8,6.18,1.83,2.23,35.82-5.86-1.74-1.42-28.55L483.42,696Zm7.52-6,2.77-4L503.87,689l.17,4.82Z"/></g><g class="cls-5"><path class="cls-4" d="M528,705.71a16.4,16.4,0,0,1-8.45-2.83,14.54,14.54,0,0,1-5.11-6.52,22.28,22.28,0,0,1,1.38-18.15,14.76,14.76,0,0,1,6-5.7,16.42,16.42,0,0,1,8.79-1.55,15.51,15.51,0,0,1,9.57,3.7,13.25,13.25,0,0,1,4.17,8.69l-6.34-.48a7.84,7.84,0,0,0-2.4-4.67,8.73,8.73,0,0,0-5.44-2.06,9.88,9.88,0,0,0-5.56,1.05,9.4,9.4,0,0,0-3.83,4,16.18,16.18,0,0,0-1.72,6.46,15.8,15.8,0,0,0,.73,6.6,9.42,9.42,0,0,0,3.19,4.44,9.87,9.87,0,0,0,5.34,1.88,9.33,9.33,0,0,0,5.68-1.09,7.21,7.21,0,0,0,3-4l6.34.48a12.65,12.65,0,0,1-5.38,7.64A15.79,15.79,0,0,1,528,705.71Z"/></g><g class="cls-5"><path class="cls-4" d="M551.21,705.61l-4.59-33.38,5.72-.79,1.9,13.78,10.7-15.51,7.1-1-10.53,15,15.41,18.39-7,1-11.9-14.41-2.8,4,1.67,12.17Z"/></g><g class="cls-5"><path class="cls-4" d="M582.86,700l-9.2-32.42,5.55-1.57,9.2,32.42Z"/></g><g class="cls-5"><path class="cls-4" d="M642.81,670.84a15.83,15.83,0,0,1-7.91,3.45,14.66,14.66,0,0,1-8.1-1.32,21.69,21.69,0,0,1-11.2-14.35,15,15,0,0,1,.73-8.46,17.31,17.31,0,0,1,5.69-7.31,16.19,16.19,0,0,1,9.4-3.8,12.88,12.88,0,0,1,8.79,3.05l-5.11,4a6.74,6.74,0,0,0-4.64-1.31,9.75,9.75,0,0,0-5.18,2.29,11,11,0,0,0-3.7,4.76,9.4,9.4,0,0,0-.3,5.62,15.6,15.6,0,0,0,3.05,6,15.34,15.34,0,0,0,5,4.36,9.27,9.27,0,0,0,5.43,1,10.64,10.64,0,0,0,5.23-2.3c2.47-1.95,3.8-4.11,4-6.49a11.73,11.73,0,0,0-2-7.16l-6.86,5.37-2.7-3.44,11.44-9,11.38,14.51-4.17,3.27-3.23-3.34a13.21,13.21,0,0,1-.27,3.79,10,10,0,0,1-1.57,3.5A15.64,15.64,0,0,1,642.81,670.84Z"/></g><path class="cls-2" d="M479.25,480.13l.31.08a1.26,1.26,0,0,1,.87.63,1.66,1.66,0,0,1,.23.87,1.41,1.41,0,0,1-.23.79,6.71,6.71,0,0,1-.63.86l-.63.87h0L478,482.57a2.72,2.72,0,0,1-.32-.7,1.57,1.57,0,0,1,.16-1,1.63,1.63,0,0,1,.86-.71c.16,0,.24-.08.4-.08l.16.08Zm-1.11,1.58a1,1,0,1,0,1-1,1,1,0,0,0-1,1Z"/><path class="cls-2" d="M471.92,502l.31.08a1.21,1.21,0,0,1,.87.63,1.58,1.58,0,0,1,.24.87,1.29,1.29,0,0,1-.24.78,5.45,5.45,0,0,1-.63.87l-.63.87h0l-1.18-1.66a2.64,2.64,0,0,1-.32-.71,1.61,1.61,0,0,1,.16-1,1.57,1.57,0,0,1,.87-.71c.16,0,.23-.08.39-.08l.16.08Zm-1.18,1.58a1,1,0,0,0,2.05,0,1,1,0,0,0-1-1,1.17,1.17,0,0,0-1,1Z"/><path class="cls-2" d="M516.66,501.56a.48.48,0,0,1,.32.08,1.21,1.21,0,0,1,.86.63,1.54,1.54,0,0,1,.24.86,1.32,1.32,0,0,1-.24.79,5.94,5.94,0,0,1-.63.87l-.63.86h0L515.4,504a2.78,2.78,0,0,1-.32-.71,1.63,1.63,0,0,1,.08-1,1.33,1.33,0,0,1,.87-.71,3.7,3.7,0,0,1,.39-.08l.24.08Zm-1.1,1.57a1,1,0,1,0,2.05,0h0a1,1,0,0,0-1-1,1,1,0,0,0-1,1Z"/><path class="cls-2" d="M495.24,489.43l.31.08a1.24,1.24,0,0,1,.79.63,1.28,1.28,0,0,1,.23.78,1.22,1.22,0,0,1-.23.71,8.22,8.22,0,0,1-.55.79,6.22,6.22,0,0,1-.63.79h0c-.4-.47-.71-1-1.11-1.5a1.56,1.56,0,0,1-.31-.71,1.32,1.32,0,0,1,.16-.94,1.22,1.22,0,0,1,.78-.63c.08,0,.24-.08.32-.08l.24.08Zm-1,1.42a.95.95,0,1,0,1-1,.91.91,0,0,0-1,1Z"/><circle class="cls-2" cx="389.14" cy="538.88" r="8.59"/><circle class="cls-2" cx="688.89" cy="538.88" r="8.59"/></svg>