<svg id="Calque_1" data-name="Calque 1" xmlns="http://www.w3.org/2000/svg" viewBox="0 0 1080 1080"><defs><style>.cls-1{fill:#eaeaea;}.cls-2{fill:#fff;}.cls-3{fill:none;}.cls-4{isolation:isolate;}</style></defs><path d="M540.05,632.77A92.77,92.77,0,1,1,632.82,540,92.87,92.87,0,0,1,540.05,632.77Zm0-183.53A90.77,90.77,0,1,0,630.82,540,90.86,90.86,0,0,0,540.05,449.24Z"/><path d="M540.05,605.12A65.12,65.12,0,1,1,605.17,540,65.19,65.19,0,0,1,540.05,605.12Zm0-128.24A63.12,63.12,0,1,0,603.17,540,63.19,63.19,0,0,0,540.05,476.88Z"/><polygon points="541.44 536.82 539.46 536.56 554.66 418.88 554.73 417.91 556.73 418.07 556.65 419.09 541.44 536.82"/><polygon points="539.52 537.08 505.26 454.89 505.26 454.82 493.29 426.25 495.13 425.48 495.53 426.43 507.26 454.49 541.37 536.31 539.52 537.08"/><polygon points="539.84 537.49 490.56 499.88 490.22 499.68 467.85 482.6 467.85 482.52 443.41 463.9 444.66 462.34 445.45 462.97 469.85 481.53 469.85 481.61 491.16 497.88 491.51 498.09 541.05 535.9 539.84 537.49"/><polygon points="540.32 537.68 476.83 529.49 449.42 526.03 418.36 522.01 418.67 520.03 419.69 520.19 449.68 524.04 477.09 527.51 540.58 535.7 540.32 537.68"/><polygon points="425.83 585.66 425.06 583.82 479.49 561.13 540.06 535.77 540.83 537.62 480.26 562.98 454.66 573.61 425.83 585.66"/><polygon points="464.93 637.39 463.31 636.22 463.94 635.35 499.09 589.33 539.65 536.09 541.24 537.3 500.68 590.55 464.93 637.39"/><polygon points="525.38 662.09 523.38 661.93 523.46 660.91 539.46 536.57 541.44 536.82 532.85 603.69 525.45 661.12 525.38 662.09"/><polygon points="588.05 653.26 565.36 598.91 539.52 537.08 541.37 536.31 567.21 598.14 577.84 623.66 589.89 652.49 588.05 653.26"/><polygon points="639.03 613.12 638.16 612.49 592.14 577.34 539.84 537.49 541.05 535.9 593.36 575.75 640.21 611.5 639.03 613.12"/><polygon points="662.31 553.43 661.28 553.28 540.32 537.68 540.58 535.7 661.56 551.3 662.61 551.46 662.31 553.43"/><polygon points="540.83 537.62 540.06 535.77 597.72 511.75 623.24 501.03 652.07 489.06 652.84 490.91 624.01 502.88 598.49 513.59 540.83 537.62"/><polygon points="541.24 537.3 539.65 536.09 611.96 441.41 612.58 440.56 614.2 441.73 613.57 442.6 541.24 537.3"/><path d="M717.52,524.4a178.15,178.15,0,0,0-354.93,0q-.7,7.68-.71,15.6a173.77,173.77,0,0,0,1.58,24c11.73,87,86.33,154.15,176.52,154.15S704.76,651.06,716.5,564a175.33,175.33,0,0,0,1.57-24A128,128,0,0,0,717.52,524.4ZM540.05,661.93A121.79,121.79,0,0,1,418.12,540.16v-.24a129.31,129.31,0,0,1,.95-15.59,122,122,0,0,1,242,0,129.31,129.31,0,0,1,1,15.59,121.86,121.86,0,0,1-121.78,122Z"/><path class="cls-1" d="M540,721.67A181.71,181.71,0,0,1,360,564.49,178.62,178.62,0,0,1,358.38,540c0-5.36.24-10.72.72-15.92a181.65,181.65,0,0,1,361.91,0,131.67,131.67,0,0,1,.56,15.95A178.13,178.13,0,0,1,720,564.5,181.71,181.71,0,0,1,540,721.67Zm.07-356.34c-89.83,0-166.25,70-174,159.38-.47,5-.7,10.14-.7,15.29a172.82,172.82,0,0,0,1.54,23.54c11.62,86.17,86,151.13,173.06,151.13s161.43-65,173-151.11A173.33,173.33,0,0,0,714.57,540v-.1a123,123,0,0,0-.54-15.17v0C706.3,435.33,629.88,365.33,540.05,365.33Zm-.14,300.1A125.28,125.28,0,0,1,414.62,540.16v-.24a134.65,134.65,0,0,1,1-16,125.49,125.49,0,0,1,248.92,0,132.92,132.92,0,0,1,1,16A125.35,125.35,0,0,1,540.22,665.43h-.31Zm-.16-244A118.53,118.53,0,0,0,422.54,524.77a126,126,0,0,0-.92,15.15v.24A118.29,118.29,0,0,0,539.91,658.43h.3a118.35,118.35,0,0,0,118.28-118.5,126.48,126.48,0,0,0-.92-15.18A118.56,118.56,0,0,0,555.2,422.4,120,120,0,0,0,539.75,421.4Z"/><path d="M622.13,514.4a2.16,2.16,0,0,1-.08.71l-3.62,11.74-.79,2.52a6.82,6.82,0,0,1-2.13,3.38l-18.9,17.73a7.29,7.29,0,0,0-2.28,5.83l.15,2,1.26,21.27.08,1a5.13,5.13,0,0,1-.47,2.6,4.3,4.3,0,0,1-.79,1.26l-.23.23a3.48,3.48,0,0,1-1.19,1l-.07.08-7.41,4.25a7.19,7.19,0,0,0-3.62,6.22v6.54a7.27,7.27,0,0,1-2.29,5.36l-13,12.68-4.89,4.65A6.8,6.8,0,0,1,558,627.2l-11.81,1.34a3.91,3.91,0,0,1-4.26-3.08,164,164,0,0,0-7.64-25,109.68,109.68,0,0,0-6-12.76,7.84,7.84,0,0,1-.4-6.62l2.52-6.54c.08-.24.16-.55.24-.87a7.48,7.48,0,0,0-.47-4.88l-9.85-20a8.81,8.81,0,0,1-.63-5.83l.47-1.89.87-3.3a5.78,5.78,0,0,0-2.6-6.31,3.32,3.32,0,0,0-.71-.39c-.86-.39-2-.79-3-1.18s-2.28-.79-3.62-1.18c-.87-.24-1.89-.48-2.84-.71s-1.89-.4-2.83-.55-2.21-.32-3.39-.48c-.47,0-.87-.07-1.34-.07-1.18-.08-2.44-.16-3.7-.16A53.45,53.45,0,0,0,485.31,528l-1,.23-1.26.24c-.24,0-.56.08-.79.08a19.08,19.08,0,0,1-2.13-.16l-.31-.08-.79-.23-.71-.24a6,6,0,0,1-.95-.47,7.24,7.24,0,0,1-2.12-1.66l-.71-.78-.32-.32-4.09-4.33-3.7-3.86-5.75-6.07a7.3,7.3,0,0,1-.79-.94,9.24,9.24,0,0,1-1.58-3.63,7.53,7.53,0,0,1-.15-1.33v-.4a5.31,5.31,0,0,1,.15-1.57L460,492.19l.47-2.92,1.1-6.38a11.09,11.09,0,0,1,1.81-4.57,14.29,14.29,0,0,1,2-2.28L475,467.3l11.34-10.24,5.91-5.28a1.44,1.44,0,0,1,.95-.39H524a1.43,1.43,0,0,1,1.41,1.49l-.15,3.78a4.12,4.12,0,0,0,2.44,3.86l8.35,3.63,7.64,3.3a1,1,0,0,0,1.26-.47v-.08l2.2-5.59a2.67,2.67,0,0,1,3.31-1.5l1.26.4,16.15,5.35,4.57,1.58a6.09,6.09,0,0,1,3.38,2.76l5.44,9.13L591.41,496l9,15a6.37,6.37,0,0,0,6,3.08l14-1.11A1.61,1.61,0,0,1,622.13,514.4Z"/><path class="cls-2" d="M531.39,504.79l-.47.55,2.75,6.78v.23l-6.53,10.48-.32.55-1.73-.79h0L524,522l-.4.39-3.7,3.71c0,.08-.08.08-.08.15l-.63,2.84v1.34c0,.16-.08.31-.24.31h-.15c-5.12-2.83-12.45-3.15-18.51-3.46-6.54-.32-12.29.39-14.5,1.1a8.87,8.87,0,0,1-2.91.47h-.47a21.36,21.36,0,0,1-2.37-.31c-.08,0-.23-.08-.31-.08l-.79-.24-.71-.23c-.31-.16-.63-.24-.94-.4h0c-.16-.15-1.26-1-2.84-2.36h0c-1.26-1.1-2.91-2.6-4.65-4.25a73.25,73.25,0,0,1-10-11.27h0a12.29,12.29,0,0,1-1.89-5.12h0c-.95-6.69,4.25-15.28,4.25-15.28h0l7.09-.39c.16,0,.32-.16.24-.32v-.08L468.22,485a.28.28,0,0,1,.16-.39h2.44a.34.34,0,0,0,.31-.32v-6.62a.34.34,0,0,1,.32-.31h7a.75.75,0,0,0,.79-.79v-.16a.78.78,0,0,1,.78-.78.66.66,0,0,1,.4.15l23.78,15.76c.08,0,.08.08.16.08h2.44a.33.33,0,0,1,.32.31v2.21a.34.34,0,0,0,.31.31h2l.71-.31.71-.32,1.81-.71.48-.31.63-.4,13-7.64c.08,0,.08-.07.16,0h5.2c.08,0,.16,0,.16.08l4,4a.25.25,0,0,1,.08.16V499.2c0,.08,0,.16-.08.16l-4.88,5.43Z"/><path class="cls-3" d="M622.13,514.4a2.16,2.16,0,0,1-.08.71l-3.62,11.74-.79,2.52a6.82,6.82,0,0,1-2.13,3.38l-18.9,17.73a7.29,7.29,0,0,0-2.28,5.83l.15,2,1.26,21.27.08,1a5.13,5.13,0,0,1-.47,2.6,4.3,4.3,0,0,1-.79,1.26l-.23.23a3.48,3.48,0,0,1-1.19,1l-.07.08-7.41,4.25a7.19,7.19,0,0,0-3.62,6.22v6.54a7.27,7.27,0,0,1-2.29,5.36l-13,12.68-4.89,4.65A6.8,6.8,0,0,1,558,627.2l-11.81,1.34a3.91,3.91,0,0,1-4.26-3.08,164,164,0,0,0-7.64-25,109.68,109.68,0,0,0-6-12.76,7.84,7.84,0,0,1-.4-6.62l2.52-6.54c.08-.24.16-.55.24-.87a7.48,7.48,0,0,0-.47-4.88l-9.85-20a8.81,8.81,0,0,1-.63-5.83l.47-1.89.87-3.3a5.78,5.78,0,0,0-2.6-6.31,3.32,3.32,0,0,0-.71-.39c-.86-.39-2-.79-3-1.18s-2.28-.79-3.62-1.18c-.87-.24-1.89-.48-2.84-.71s-1.89-.4-2.83-.55-2.21-.32-3.39-.48c-.47,0-.87-.07-1.34-.07-1.18-.08-2.44-.16-3.7-.16A53.45,53.45,0,0,0,485.31,528l-1,.23-1.26.24c-.24,0-.56.08-.79.08a19.08,19.08,0,0,1-2.13-.16l-.31-.08-.79-.23-.71-.24a6,6,0,0,1-.95-.47,7.24,7.24,0,0,1-2.12-1.66l-.71-.78-.32-.32-4.09-4.33-3.7-3.86-5.75-6.07a7.3,7.3,0,0,1-.79-.94,9.24,9.24,0,0,1-1.58-3.63,7.53,7.53,0,0,1-.15-1.33v-.4a5.31,5.31,0,0,1,.15-1.57L460,492.19l.47-2.92,1.1-6.38a11.09,11.09,0,0,1,1.81-4.57,14.29,14.29,0,0,1,2-2.28L475,467.3l11.34-10.24,5.91-5.28a1.44,1.44,0,0,1,.95-.39H524a1.43,1.43,0,0,1,1.41,1.49l-.15,3.78a4.12,4.12,0,0,0,2.44,3.86l8.35,3.63,7.64,3.3a1,1,0,0,0,1.26-.47v-.08l2.2-5.59a2.67,2.67,0,0,1,3.31-1.5l1.26.4,16.15,5.35,4.57,1.58a6.09,6.09,0,0,1,3.38,2.76l5.44,9.13L591.41,496l9,15a6.37,6.37,0,0,0,6,3.08l14-1.11A1.61,1.61,0,0,1,622.13,514.4Z"/><path class="cls-1" d="M623.08,512.51a3.48,3.48,0,0,0-2.92-1.26l-13.94,1.18a4.76,4.76,0,0,1-3.39-1.1,3.51,3.51,0,0,1-.94-1.18l-5.6-9.38-.31-.63L577.23,469a8.35,8.35,0,0,0-4.25-3.47l-22.06-7.24a4.37,4.37,0,0,0-5.35,2.44l-2,4.88L528.24,459a2.43,2.43,0,0,1-1.42-2.21L527,453a3.16,3.16,0,0,0-3.07-3.23H493a2.8,2.8,0,0,0-2,.79L464,474.78a13.91,13.91,0,0,0-2.2,2.6,13.38,13.38,0,0,0-2,5.2l-1.65,9.77-.79,4.72-.47,2.92-.4,2a15.11,15.11,0,0,0-.16,2v.32a5.88,5.88,0,0,0,.24,1.65,9.78,9.78,0,0,0,1.58,3.86l.15.32.32.39.31.39.08.08.47.48,10.64,11.26,2.83,3,1,1.11a10.38,10.38,0,0,0,2.28,1.81l.24.16c.39.15.79.39,1.18.55l.55.23.95.24h0l.55.16a13.43,13.43,0,0,0,2.44.23,3.74,3.74,0,0,0,.94-.08l1.5-.23,1-.24a55.92,55.92,0,0,1,7.08-1.1,37.92,37.92,0,0,1,4.26-.16h1.34a13.71,13.71,0,0,1,1.81.08h.47l1.26.08c1.1.16,2.29.24,3.31.47l.47.08c.79.16,1.5.24,2.29.39s2,.48,2.75.71c1.26.4,2.45.71,3.55,1.11a29,29,0,0,1,2.91,1.18c.16.08.4.15.55.23a4.09,4.09,0,0,1,1.82,4.41l-1.34,5.2a10.71,10.71,0,0,0,.71,7l9.84,20.09a5.74,5.74,0,0,1,.4,3.78c-.08.16-.08.39-.16.55l-2.52,6.54a9.45,9.45,0,0,0,.55,8.11A102,102,0,0,1,532.81,601l.16.39c2.12,5.36,3.78,10.56,5,14.89h0l.08.16h0v.15c0,.08,0,.16.07.16h0c1.19,4,1.89,7.25,2.29,9.06a5.55,5.55,0,0,0,5.43,4.41h.63l11.82-1.34a8.82,8.82,0,0,0,4.88-2.28l17.88-17.41a9.29,9.29,0,0,0,2.76-6.54v-6.54a5.47,5.47,0,0,1,2.76-4.72l7.4-4.26.24-.15a17.08,17.08,0,0,0,1.41-1.11,1.89,1.89,0,0,0,.4-.47,6.29,6.29,0,0,0,.94-1.57,7,7,0,0,0,.63-3.39l-1.34-22.06-.15-2a5.82,5.82,0,0,1,1.81-4.57L617,534a9.62,9.62,0,0,0,2.6-4.17l4.33-14.34A4.79,4.79,0,0,0,623.08,512.51Zm-30.49,44,1.5,24.1a4.63,4.63,0,0,1-.32,1.82,5.54,5.54,0,0,1-.47.78l-.23.24a3.22,3.22,0,0,1-.79.63l-7.49,4.33a9,9,0,0,0-4.49,7.64v6.54a5.93,5.93,0,0,1-1.73,4.18l-17.8,17.32a5.11,5.11,0,0,1-2.91,1.42L546,626.88a2.19,2.19,0,0,1-2.44-1.73c-.55-2.6-1.81-8-3.86-14.49h0a3.66,3.66,0,0,0-.32-.87h0v-.08c-.07-.16-.07-.39-.15-.55-.95-2.92-2-6.07-3.31-9.3l-.16-.31a106.14,106.14,0,0,0-5.91-12.6,6.05,6.05,0,0,1-.31-5.2l2.6-6.62c.08-.31.23-.63.31-.94a8.72,8.72,0,0,0-.63-6l-9.84-20a7,7,0,0,1-.48-4.72l1.34-5.2a7.38,7.38,0,0,0-3.23-8,.56.56,0,0,0-.31-.15c-.24-.16-.47-.24-.71-.4-1.1-.47-2.13-.86-3.07-1.18s-2.37-.79-3.78-1.18l-2.92-.71a3.26,3.26,0,0,0-.86-.16c-.63-.16-1.34-.23-2.05-.39l-2-.32-1.42-.15h-.24c-.47,0-.94-.08-1.41-.08-1-.08-2.37-.16-3.86-.16h-2a56,56,0,0,0-10.24,1.34l-.95.23a4.55,4.55,0,0,1-1.1.16h-1.34a3.86,3.86,0,0,1-.94-.16l-.32-.07-.55-.16-.32-.16c-.07,0-.23-.08-.31-.08l-.16-.08c-.16-.08-.39-.15-.55-.23l-.24-.16a1.89,1.89,0,0,1-.39-.24,7.81,7.81,0,0,1-1.26-1l-.79-.87-3.23-3.38-10.63-11.11c-.16-.16-.24-.32-.4-.47l-.55-.63-.23-.48a7.48,7.48,0,0,1-.87-2.36,4.74,4.74,0,0,1-.08-1.1,5.81,5.81,0,0,1,.08-1.18.6.6,0,0,1,.08-.4l1.89-11,.39-2.13h0l1.11-6.3a9.62,9.62,0,0,1,1.57-3.86,12.75,12.75,0,0,1,1.66-2l26.86-24.26h30.48l-.16,3.54a5.71,5.71,0,0,0,3.39,5.44l15.91,6.93a2.38,2.38,0,0,0,2.05,0,2.54,2.54,0,0,0,1.49-1.5l2.21-5.59a.94.94,0,0,1,1.18-.55l22,7.24a5.77,5.77,0,0,1,2.52,2L592,500.22l.55.87,6.31,10.63a8.08,8.08,0,0,0,7.56,3.86l13.94-1.1L616,528.74a5.91,5.91,0,0,1-1.66,2.67l-19,17.81a9.62,9.62,0,0,0-2.76,7.32Zm27.81-41.9h0l1.57.47Z"/><path d="M617.64,589.86a21.31,21.31,0,0,1-2.28,6.38c-.32.63-.71,1.42-1.11,2.36-5,10.72-7.4,14.26-9.68,14.26a5.23,5.23,0,0,1-4.49-2.52c-2-3.07-1.66-8.43-.16-11.26.86-1.66,1.26-5.83,1.57-8.83.08-1.18.24-2.36.32-3.23a3.8,3.8,0,0,1,2.83-3.15,10.81,10.81,0,0,0,3.71-1.81,18.57,18.57,0,0,0,4.72-5.43,2.68,2.68,0,0,1,3.7-.87,2.34,2.34,0,0,1,1,1.1C619,579.31,619,583.4,617.64,589.86Z"/><path class="cls-1" d="M617.88,576.71a2.32,2.32,0,0,0-1-1.11,2.69,2.69,0,0,0-3.7.87,17.57,17.57,0,0,1-4.72,5.43,11.07,11.07,0,0,1-3.71,1.82,3.77,3.77,0,0,0-2.83,3.15,31.45,31.45,0,0,0-.32,3.23c-.31,3-.71,7.16-1.57,8.82-1.42,2.83-1.74,8.19.15,11.26a5,5,0,0,0,4.49,2.52c2.29,0,4.65-3.46,9.69-14.25.48-1,.79-1.74,1.11-2.37a19.86,19.86,0,0,0,2.28-6.38C619,583.4,619,579.31,617.88,576.71Zm-3.07,12.52a21.66,21.66,0,0,1-2,5.67c-.32.71-.71,1.42-1.18,2.44-4.49,9.53-6.38,12.13-7.17,12.61a2.2,2.2,0,0,1-1.89-1.19c-1.26-2-1-6.3,0-8.42s1.49-6.23,1.81-9.85c.16-1.18.24-2.36.31-3.15a1,1,0,0,1,.63-.71l.08-.08c2.21-.55,6.38-2.28,10-8.19C616,580.33,615.83,584,614.81,589.23Z"/><path d="M472.31,502.43a1,1,0,0,1-.29-.71h0a1,1,0,0,1,.29-.7h0a1,1,0,0,1,.71-.3h0a1,1,0,0,1,.71.3h0a1,1,0,0,1,.29.7h0a1,1,0,0,1-.29.71h0a1,1,0,0,1-.71.29h0A1,1,0,0,1,472.31,502.43Z"/><path d="M474.3,499.11a1,1,0,0,1-.55-1.31h0a1,1,0,0,1,1.3-.55h0a1,1,0,0,1,.55,1.3h0a1,1,0,0,1-.92.62h0A1,1,0,0,1,474.3,499.11Zm2-5.05a1,1,0,0,1-.55-1.3h0a1,1,0,0,1,1.3-.55h0a1,1,0,0,1,.55,1.3h0a1,1,0,0,1-.92.62h0A1,1,0,0,1,476.34,494.06Z"/><path d="M513.05,516.75a1,1,0,0,1-.55-1.3h0a1,1,0,0,1,1.3-.55h0a1,1,0,0,1,.55,1.3h0a1,1,0,0,1-.93.62h0A1.06,1.06,0,0,1,513.05,516.75Zm2.05-5.05a1,1,0,0,1-.56-1.3h0a1,1,0,0,1,1.31-.55h0a1,1,0,0,1,.55,1.3h0a1,1,0,0,1-.93.63h0A1,1,0,0,1,515.1,511.7Z"/><path d="M478.46,488a1,1,0,0,1-.29-.71h0a1,1,0,0,1,.29-.71h0a1,1,0,0,1,.71-.29h0a1,1,0,0,1,.7.29h0a1,1,0,0,1,.3.71h0a1,1,0,0,1-.3.71h0a1,1,0,0,1-.7.29h0A1,1,0,0,1,478.46,488Z"/><path d="M481.52,513a1,1,0,0,1,.86-1.12h0a1,1,0,0,1,1.12.86h0a1,1,0,0,1-.86,1.12h-.13A1,1,0,0,1,481.52,513Zm-.7-5.39a1,1,0,0,1,.86-1.12h0a1,1,0,0,1,1.12.86h0a1,1,0,0,1-.86,1.12h-.13A1,1,0,0,1,480.82,507.61Zm-.72-5.49h0a1,1,0,0,1,1-1h0a1,1,0,0,1,1,1h0a1,1,0,0,1-1,1h0A1,1,0,0,1,480.1,502.12Zm-.11-5.26a1,1,0,0,1,.79-1.17h0a1,1,0,0,1,1.17.79h0a1,1,0,0,1-.79,1.17h0l-.19,0h0A1,1,0,0,1,480,496.86Zm-1-5.35a1,1,0,0,1,.8-1.17h0a1,1,0,0,1,1.17.8h0a1,1,0,0,1-.8,1.17h0l-.19,0h0A1,1,0,0,1,479,491.51Z"/><path d="M509.32,517.07a1,1,0,0,1,.25-1.39h0a1,1,0,0,1,1.39.25h0a1,1,0,0,1-.25,1.39h0a1,1,0,0,1-.57.18h0A1,1,0,0,1,509.32,517.07Zm-3.12-4.46a1,1,0,0,1,.25-1.39h0a1,1,0,0,1,1.39.25h0a1,1,0,0,1-.25,1.39h0a1,1,0,0,1-.57.18h0A1,1,0,0,1,506.2,512.61ZM503,508.07h0a1,1,0,0,1,.39-1.36h0a1,1,0,0,1,1.36.4h0a1,1,0,0,1-.39,1.36h0a1.07,1.07,0,0,1-.48.12h0A1,1,0,0,1,503,508.07Zm-2.52-4.62a1,1,0,0,1,.16-1.4h0a1,1,0,0,1,1.41.16h0a1,1,0,0,1-.16,1.41h0a1,1,0,0,1-.62.21h0A1,1,0,0,1,500.51,503.45Zm-3.38-4.26a1,1,0,0,1,.16-1.4h0a1,1,0,0,1,1.41.16h0a1,1,0,0,1-.16,1.4h0a1,1,0,0,1-.63.22h0A1,1,0,0,1,497.13,499.19Z"/><path d="M482.71,520.15a1,1,0,0,1-.29-.7h0a1,1,0,0,1,.29-.71h0a1,1,0,0,1,.71-.3h0a1,1,0,0,1,.71.3h0a1,1,0,0,1,.29.71h0a1,1,0,0,1-.29.7h0a1,1,0,0,1-.71.3h0A1,1,0,0,1,482.71,520.15Z"/><path d="M485.05,516.57a1,1,0,0,1-.49-1.32h0a1,1,0,0,1,1.33-.49h0a1,1,0,0,1,.49,1.32h0a1,1,0,0,1-.91.59h0A.92.92,0,0,1,485.05,516.57Zm2.26-5a1,1,0,0,1-.5-1.32h0a1,1,0,0,1,1.32-.5h0a1,1,0,0,1,.5,1.32h0a1,1,0,0,1-.91.59h0A1,1,0,0,1,487.31,511.62Z"/><path d="M490.27,504.79a1,1,0,0,1-.29-.7h0a1,1,0,0,1,.29-.71h0a1,1,0,0,1,.71-.29h0a1,1,0,0,1,.71.29h0a1,1,0,0,1,.29.71h0a1,1,0,0,1-.29.7h0a1,1,0,0,1-.71.3h0A1,1,0,0,1,490.27,504.79Z"/><path d="M493.47,501.46a1,1,0,0,1-.88-1.11h0a1,1,0,0,1,1.1-.88h0a1,1,0,0,1,.88,1.1h0a1,1,0,0,1-1,.89h-.11Z"/><path d="M494.37,497.07a1,1,0,0,1-.29-.7h0a1,1,0,0,1,.29-.71h0a1,1,0,0,1,.71-.29h0a1,1,0,0,1,.71.29h0a1,1,0,0,1,.29.71h0a1,1,0,0,1-.29.7h0a1,1,0,0,1-.71.3h0A1,1,0,0,1,494.37,497.07Z"/><g class="cls-4"><path class="cls-2" d="M596.9,697.32,582.84,666.7l5.25-2.41L613,679.66l-10.17-22.14,5.26-2.41,14.06,30.62-5.26,2.41L592,672.82l10.14,22.09Z"/></g><g class="cls-4"><path class="cls-2" d="M446.63,446.14a16.44,16.44,0,0,1-7.65,4.59,14.51,14.51,0,0,1-8.27-.35,20.08,20.08,0,0,1-7.81-5,20.3,20.3,0,0,1-5.1-7.82,14.64,14.64,0,0,1-.42-8.28,16.34,16.34,0,0,1,4.52-7.7,15.59,15.59,0,0,1,9-4.88,13.24,13.24,0,0,1,9.32,2.48l-4.48,4.5a7.82,7.82,0,0,0-5.11-1.2,8.76,8.76,0,0,0-5.09,2.8,9.88,9.88,0,0,0-2.81,4.91,9.42,9.42,0,0,0,.52,5.48,16.19,16.19,0,0,0,3.8,5.51,15.78,15.78,0,0,0,5.49,3.72,9.45,9.45,0,0,0,5.45.46,9.88,9.88,0,0,0,4.89-2.84,9.16,9.16,0,0,0,2.86-5,7.17,7.17,0,0,0-1.05-4.92l4.48-4.5a12.61,12.61,0,0,1,2.31,9A15.83,15.83,0,0,1,446.63,446.14Z"/></g><g class="cls-4"><path class="cls-2" d="M470.78,427.11a16.64,16.64,0,0,1-8.47,2.64,15.5,15.5,0,0,1-8.18-2.15,20.65,20.65,0,0,1-9.53-15.51,15.74,15.74,0,0,1,1.77-8.29,16.44,16.44,0,0,1,6.17-6.38,16.78,16.78,0,0,1,8.58-2.68,15.32,15.32,0,0,1,8.18,2.18,21,21,0,0,1,9.52,15.51,15,15,0,0,1-1.76,8.26A17,17,0,0,1,470.78,427.11Zm-2.68-4.45a10.64,10.64,0,0,0,4-4.2,9.57,9.57,0,0,0,.95-5.53,17.06,17.06,0,0,0-6.85-11.16,9.7,9.7,0,0,0-5.36-1.65,11.54,11.54,0,0,0-9.6,5.9,9.77,9.77,0,0,0-1,5.54,16.86,16.86,0,0,0,6.86,11.16,9.77,9.77,0,0,0,5.38,1.64A10.69,10.69,0,0,0,468.1,422.66Z"/></g><g class="cls-4"><path class="cls-2" d="M485.24,417.49l-9.58-32.3,6.55-1.95L498.74,401l4.05-23.91,6.6-2L519,407.48l-5.54,1.65-6.76-22.8-3.72,21-4.34,1.28L484,393.1l6.75,22.75Z"/></g><g class="cls-4"><path class="cls-2" d="M520.74,407.31l-.55-33.7,6.83-.11,11.14,21.58,10.33-21.93,6.89-.11.54,33.7-5.77.09-.39-23.78-9.22,19.22-4.53.07-9.88-18.86.38,23.73Z"/></g><g class="cls-4"><path class="cls-2" d="M558.23,407.83l7.18-32.93,21.26,4.63-1,4.57-15.61-3.41L568,390.15l14.21,3.09-1,4.47L567,394.62l-2.15,9.88,15.62,3.4-1,4.56Z"/></g><g class="cls-4"><path class="cls-2" d="M581.66,413.13l13.24-31L606,386.89a14.25,14.25,0,0,1,5.55,3.87,9.21,9.21,0,0,1,2.15,4.89,10.44,10.44,0,0,1-.87,5.26,10.28,10.28,0,0,1-3.11,4.12,9.19,9.19,0,0,1-5.05,1.87,14.6,14.6,0,0,1-6.79-1.38l-5.66-2.42L587,415.4Zm12.25-14,5.45,2.32a6.32,6.32,0,0,0,5,.43,5.67,5.67,0,0,0,3-3.19,5.45,5.45,0,0,0,.21-4.28q-.78-2-3.79-3.27l-5.44-2.33Zm3.9,20.88-.66-16.46,5.76,2.46,1,16.59Z"/></g><g class="cls-4"><path class="cls-2" d="M617.24,432.39a16.54,16.54,0,0,1-5.82-6.81,14.57,14.57,0,0,1-1-8.25,22.28,22.28,0,0,1,10.55-14.92,14.72,14.72,0,0,1,8.14-1.8,16.4,16.4,0,0,1,8.37,3.2,15.63,15.63,0,0,1,6.34,8.12,13.31,13.31,0,0,1-.9,9.64l-5.21-3.68a7.82,7.82,0,0,0,.35-5.26A8.82,8.82,0,0,0,634.4,408a10,10,0,0,0-5.34-2,9.51,9.51,0,0,0-5.33,1.43,16.11,16.11,0,0,0-4.82,4.68,15.87,15.87,0,0,0-2.78,6.06,9.5,9.5,0,0,0,.45,5.47,9.91,9.91,0,0,0,3.63,4.38,9.27,9.27,0,0,0,5.46,2,7.23,7.23,0,0,0,4.69-1.86l5.22,3.69a12.71,12.71,0,0,1-8.58,3.79A15.84,15.84,0,0,1,617.24,432.39Z"/></g><g class="cls-4"><path class="cls-2" d="M630.29,441.78l24.6-22.91,14.79,15.88-3.4,3.18-10.87-11.67-7.07,6.58,9.89,10.61-3.34,3.11L645,436l-7.38,6.87,10.87,11.67-3.41,3.18Z"/></g><g class="cls-4"><path class="cls-2" d="M432.29,667.21l18.29-22.36-7.64-6.24,2.94-3.6,19.69,16.1-2.94,3.6L455,648.46,436.7,670.82Z"/></g><g class="cls-4"><path class="cls-2" d="M450.62,681.17l16.17-29.66,10.64,5.8a14.22,14.22,0,0,1,5.16,4.39,9.22,9.22,0,0,1,1.68,5.09,10.61,10.61,0,0,1-1.36,5.17,10.35,10.35,0,0,1-3.51,3.8,9.06,9.06,0,0,1-5.21,1.39,14.45,14.45,0,0,1-6.64-2l-5.43-3-6.42,11.78Zm13.56-12.78,5.21,2.85a6.4,6.4,0,0,0,4.93.9,5.71,5.71,0,0,0,3.31-2.9,5.49,5.49,0,0,0,.61-4.25q-.58-2.06-3.46-3.63l-5.21-2.84Zm1.9,21.21.91-16.48,5.51,3-.62,16.65Z"/></g><g class="cls-4"><path class="cls-2" d="M477.65,695.39l21.4-28.8,6.18,1.83,2.23,35.81-5.86-1.74L500.18,674,483.41,697.1Zm7.52-6.06,2.77-3.94,15.93,4.72.17,4.82Z"/></g><g class="cls-4"><path class="cls-2" d="M528,706.82a16.4,16.4,0,0,1-8.45-2.84,14.49,14.49,0,0,1-5.11-6.52,22.26,22.26,0,0,1,1.38-18.14,14.76,14.76,0,0,1,6-5.7,16.23,16.23,0,0,1,8.79-1.55,15.51,15.51,0,0,1,9.57,3.69,13.27,13.27,0,0,1,4.17,8.69L538,684a7.84,7.84,0,0,0-2.4-4.67,8.72,8.72,0,0,0-5.44-2,9.88,9.88,0,0,0-5.56,1,9.4,9.4,0,0,0-3.83,4,16.14,16.14,0,0,0-1.72,6.46,15.77,15.77,0,0,0,.73,6.59,9.5,9.5,0,0,0,3.19,4.45,9.87,9.87,0,0,0,5.34,1.87,9.19,9.19,0,0,0,5.68-1.09,7.15,7.15,0,0,0,3-4l6.34.48a12.6,12.6,0,0,1-5.38,7.63A15.79,15.79,0,0,1,528,706.82Z"/></g><g class="cls-4"><path class="cls-2" d="M551.21,706.72l-4.59-33.39,5.72-.78,1.9,13.78,10.7-15.52,7.1-1-10.53,15,15.41,18.38-7,1-11.89-14.4-2.8,4,1.67,12.16Z"/></g><g class="cls-4"><path class="cls-2" d="M582.86,701.14l-9.2-32.42,5.55-1.58,9.2,32.42Z"/></g><g class="cls-4"><path class="cls-2" d="M642.81,671.94a15.76,15.76,0,0,1-7.91,3.46,14.58,14.58,0,0,1-8.1-1.33,19.69,19.69,0,0,1-7.16-5.91,20,20,0,0,1-4-8.43,15,15,0,0,1,.73-8.47A17.28,17.28,0,0,1,622,644a16.06,16.06,0,0,1,9.4-3.8,12.87,12.87,0,0,1,8.79,3l-5.11,4a6.74,6.74,0,0,0-4.64-1.32,9.82,9.82,0,0,0-5.18,2.29,11.09,11.09,0,0,0-3.7,4.77,9.4,9.4,0,0,0-.3,5.62,15.67,15.67,0,0,0,3.05,6,15.46,15.46,0,0,0,5,4.36,9.19,9.19,0,0,0,5.43,1,10.47,10.47,0,0,0,5.23-2.3c2.47-1.94,3.8-4.1,4-6.48a11.74,11.74,0,0,0-2-7.17l-6.86,5.38-2.7-3.45,11.43-9,11.39,14.5-4.17,3.27-3.23-3.34a13.28,13.28,0,0,1-.27,3.8,10,10,0,0,1-1.57,3.49A15.4,15.4,0,0,1,642.81,671.94Z"/></g><path d="M479.25,481.24l.31.08a1.23,1.23,0,0,1,.87.63,1.62,1.62,0,0,1,.23.86,1.36,1.36,0,0,1-.23.79,6.79,6.79,0,0,1-.63.87l-.63.87h0L478,483.68a3.13,3.13,0,0,1-.31-.71,1.51,1.51,0,0,1,1-1.73c.16,0,.24-.08.4-.08l.16.08Zm-1.11,1.57a1,1,0,1,0,2.05,0,1,1,0,0,0-1-1,1,1,0,0,0-1,1Z"/><path d="M471.92,503.14l.31.08a1.18,1.18,0,0,1,.87.63,1.54,1.54,0,0,1,.24.86,1.32,1.32,0,0,1-.24.79,6.53,6.53,0,0,1-.63.87l-.63.86h0l-1.18-1.65a2.78,2.78,0,0,1-.32-.71,1.6,1.6,0,0,1,.16-1,1.53,1.53,0,0,1,.87-.71c.16,0,.23-.08.39-.08l.16.08Zm-1.18,1.57a1,1,0,1,0,1-1,1.17,1.17,0,0,0-1,1Z"/><path d="M516.66,502.66a.48.48,0,0,1,.32.08,1.24,1.24,0,0,1,.86.63,1.58,1.58,0,0,1,.24.87,1.34,1.34,0,0,1-.24.79,5.88,5.88,0,0,1-.63.86l-.63.87h0l-1.18-1.65a3,3,0,0,1-.32-.71,1.66,1.66,0,0,1,.08-1,1.36,1.36,0,0,1,.87-.71c.08,0,.24-.07.39-.07l.24.07Zm-1.1,1.58a1,1,0,0,0,2.05,0h0a1,1,0,0,0-1-1,1,1,0,0,0-1,1Z"/><path d="M495.24,490.53l.31.08a1.27,1.27,0,0,1,.79.63,1.33,1.33,0,0,1,.23.79,1.25,1.25,0,0,1-.23.71c-.16.31-.4.55-.55.79a6.16,6.16,0,0,1-.63.78h0c-.4-.47-.71-1-1.11-1.49a1.62,1.62,0,0,1-.31-.71,1.35,1.35,0,0,1,.16-.95,1.25,1.25,0,0,1,.78-.63c.08,0,.24-.07.32-.07l.24.07Zm-1,1.42a.95.95,0,1,0,1.89,0,.95.95,0,0,0-1.89,0Z"/><circle class="cls-2" cx="389.14" cy="539.98" r="8.59"/><circle class="cls-2" cx="688.89" cy="539.98" r="8.59"/></svg>