<svg id="Calque_1" data-name="Calque 1" xmlns="http://www.w3.org/2000/svg" viewBox="0 0 1080 1080"><defs><style>.cls-1{fill:#eaeaea;}.cls-2{fill:#fff;}.cls-3{fill:none;}.cls-4{isolation:isolate;}</style></defs><rect width="1080" height="1080"/><path class="cls-1" d="M483.57,620.52a92.77,92.77,0,1,1,92.76-92.77A92.88,92.88,0,0,1,483.57,620.52Zm0-183.53a90.77,90.77,0,1,0,90.76,90.76A90.87,90.87,0,0,0,483.57,437Z"/><path class="cls-1" d="M483.57,592.87a65.12,65.12,0,1,1,65.12-65.12A65.19,65.19,0,0,1,483.57,592.87Zm0-128.24a63.12,63.12,0,1,0,63.12,63.12A63.2,63.2,0,0,0,483.57,464.63Z"/><polygon class="cls-2" points="484.96 524.57 482.97 524.31 498.17 406.63 498.25 405.66 500.24 405.82 500.16 406.84 484.96 524.57"/><polygon class="cls-2" points="483.04 524.83 448.78 442.64 448.78 442.57 436.8 414 438.65 413.23 439.04 414.18 450.78 442.24 484.89 524.06 483.04 524.83"/><polygon class="cls-2" points="483.36 525.24 434.08 487.63 433.73 487.43 411.36 470.35 411.36 470.27 386.93 451.65 388.18 450.09 388.96 450.72 413.36 469.28 413.36 469.36 434.68 485.63 435.02 485.84 484.57 523.65 483.36 525.24"/><polygon class="cls-1" points="483.84 525.43 420.35 517.24 392.94 513.78 361.88 509.76 362.18 507.78 363.21 507.94 393.19 511.79 420.6 515.26 484.09 523.45 483.84 525.43"/><polygon class="cls-2" points="369.35 573.41 368.58 571.57 423.01 548.88 483.58 523.52 484.35 525.37 423.78 550.73 398.18 561.36 369.35 573.41"/><polygon class="cls-2" points="408.45 625.14 406.83 623.97 407.46 623.1 442.6 577.08 483.17 523.84 484.76 525.05 444.19 578.3 408.45 625.14"/><polygon class="cls-2" points="468.89 649.84 466.9 649.69 466.98 648.66 482.97 524.32 484.96 524.57 476.37 591.44 468.97 648.87 468.89 649.84"/><polygon class="cls-2" points="531.56 641.01 508.88 586.66 483.04 524.83 484.89 524.06 510.72 585.89 521.36 611.41 533.41 640.24 531.56 641.01"/><polygon class="cls-2" points="582.54 600.87 581.68 600.24 535.66 565.09 483.36 525.24 484.57 523.65 536.87 563.5 583.72 599.25 582.54 600.87"/><polygon class="cls-2" points="605.82 541.18 604.8 541.03 483.84 525.43 484.09 523.45 605.08 539.05 606.13 539.21 605.82 541.18"/><polygon class="cls-2" points="484.35 525.37 483.58 523.52 541.24 499.5 566.76 488.78 595.59 476.81 596.36 478.66 567.53 490.63 542.01 501.34 484.35 525.37"/><polygon class="cls-2" points="484.76 525.05 483.17 523.84 555.48 429.16 556.09 428.31 557.71 429.48 557.08 430.35 484.76 525.05"/><path d="M661,512.15a178.15,178.15,0,0,0-354.93,0q-.71,7.68-.7,15.6a175.33,175.33,0,0,0,1.57,24c11.74,87,86.33,154.15,176.52,154.15S648.27,638.81,660,551.77a175.34,175.34,0,0,0,1.58-24A128,128,0,0,0,661,512.15ZM483.57,649.68A121.79,121.79,0,0,1,361.64,527.91v-.24a129.29,129.29,0,0,1,.94-15.59,122,122,0,0,1,242,0,129.29,129.29,0,0,1,.94,15.59,121.85,121.85,0,0,1-121.77,122Z"/><path class="cls-1" d="M483.49,709.42A181.21,181.21,0,0,1,301.9,527.75c0-5.36.24-10.71.72-15.92a181.65,181.65,0,0,1,361.9,0,131.77,131.77,0,0,1,.57,15.95,181.62,181.62,0,0,1-181.6,181.62Zm.08-356.34c-89.83,0-166.25,70-174,159.38-.46,5-.69,10.14-.69,15.29a172.82,172.82,0,0,0,1.54,23.54c11.62,86.17,86,151.13,173.05,151.13s161.44-65,173-151.11a171.7,171.7,0,0,0,1.55-23.56v-.1a125,125,0,0,0-.54-15.17v0C649.82,423.08,573.4,353.08,483.57,353.08Zm-.15,300.1A125.28,125.28,0,0,1,358.14,527.91v-.24a132.58,132.58,0,0,1,1-16,125.49,125.49,0,0,1,248.92,0,132.91,132.91,0,0,1,1,16A125.34,125.34,0,0,1,483.73,653.18h-.31Zm-.15-244A118.53,118.53,0,0,0,366.05,512.52a128.06,128.06,0,0,0-.91,15.15v.24A118.27,118.27,0,0,0,483.42,646.18h.31A118.35,118.35,0,0,0,602,527.68a126.48,126.48,0,0,0-.92-15.18A118.55,118.55,0,0,0,498.72,410.15,120.21,120.21,0,0,0,483.27,409.15Z"/><path d="M565.65,502.15a2.16,2.16,0,0,1-.08.71l-3.63,11.74-.78,2.52A7,7,0,0,1,559,520.5l-18.9,17.73a7.3,7.3,0,0,0-2.29,5.83l.16,2,1.26,21.27.08,1a5.13,5.13,0,0,1-.47,2.6,4.52,4.52,0,0,1-.79,1.26l-.24.23a3.44,3.44,0,0,1-1.18,1l-.08.08-7.4,4.25a7.17,7.17,0,0,0-3.63,6.22v6.54a7.26,7.26,0,0,1-2.28,5.36l-13,12.68-4.88,4.65a6.8,6.8,0,0,1-3.86,1.81l-11.82,1.34a3.9,3.9,0,0,1-4.25-3.08,164,164,0,0,0-7.64-25,108.13,108.13,0,0,0-6-12.76,7.81,7.81,0,0,1-.39-6.62l2.52-6.54c.08-.24.16-.55.24-.87a7.48,7.48,0,0,0-.48-4.88l-9.84-20a8.69,8.69,0,0,1-.63-5.83l.47-1.89.87-3.3a5.79,5.79,0,0,0-2.6-6.31,3.87,3.87,0,0,0-.71-.39c-.87-.39-2-.79-3-1.18s-2.29-.79-3.63-1.18c-.86-.24-1.89-.47-2.83-.71s-1.89-.39-2.84-.55-2.2-.32-3.39-.48c-.47,0-.86-.07-1.34-.07-1.18-.08-2.44-.16-3.7-.16a53.36,53.36,0,0,0-11.73,1.34l-1,.23-1.26.24c-.23,0-.55.08-.79.08a18.9,18.9,0,0,1-2.12-.16l-.32-.08-.79-.23-.7-.24a6,6,0,0,1-.95-.47,7.15,7.15,0,0,1-2.13-1.66l-.71-.78-.31-.32-4.1-4.33-3.7-3.86-5.75-6.07a9.38,9.38,0,0,1-.79-.94,9.24,9.24,0,0,1-1.57-3.62,7.77,7.77,0,0,1-.16-1.34v-.4a5,5,0,0,1,.16-1.57l1.65-10.32.48-2.92,1.1-6.38a10.82,10.82,0,0,1,1.81-4.57,13.34,13.34,0,0,1,2-2.28l9.69-8.74,11.34-10.24,5.91-5.28a1.42,1.42,0,0,1,.94-.39h30.8a1.43,1.43,0,0,1,1.42,1.49l-.16,3.78a4.13,4.13,0,0,0,2.44,3.86l8.35,3.63,7.64,3.3a.94.94,0,0,0,1.26-.47v-.08l2.21-5.59a2.67,2.67,0,0,1,3.31-1.5l1.26.4,16.14,5.35,4.57,1.58a6.14,6.14,0,0,1,3.39,2.76l5.44,9.13,10.16,16.94,9,15a6.36,6.36,0,0,0,6,3.08l14-1.11A1.61,1.61,0,0,1,565.65,502.15Z"/><path class="cls-2" d="M474.91,492.54l-.48.55,2.76,6.78v.23l-6.54,10.48-.31.55-1.74-.79h0l-1.1-.55-.39.4-3.7,3.7c0,.08-.08.08-.08.15l-.63,2.84v1.34c0,.16-.08.31-.24.31h-.16c-5.12-2.83-12.44-3.15-18.51-3.46-6.54-.32-12.29.39-14.49,1.1a8.93,8.93,0,0,1-2.92.47h-.47a21.18,21.18,0,0,1-2.36-.31c-.08,0-.24-.08-.32-.08l-.78-.24-.71-.23c-.32-.16-.63-.24-.95-.4h0c-.16-.15-1.26-1-2.83-2.36h0c-1.26-1.1-2.92-2.6-4.65-4.25a73.33,73.33,0,0,1-10-11.27h0a12.29,12.29,0,0,1-1.89-5.12h0c-.94-6.69,4.26-15.28,4.26-15.28h0l7.09-.39c.15,0,.31-.16.23-.32v-.08l-1.26-3.54a.28.28,0,0,1,.16-.39h2.44a.34.34,0,0,0,.32-.32v-6.62a.34.34,0,0,1,.31-.31h7a.75.75,0,0,0,.79-.79v-.16a.78.78,0,0,1,.79-.78.63.63,0,0,1,.39.15l23.79,15.76c.08,0,.08.08.16.08h2.44a.33.33,0,0,1,.31.31v2.21a.33.33,0,0,0,.32.31h2l.71-.31.71-.32,1.81-.71.47-.31.63-.4,13-7.64c.08,0,.08-.07.16,0h5.19c.08,0,.16,0,.16.08l4,4a.25.25,0,0,1,.08.16V487c0,.08,0,.16-.08.16l-4.88,5.43Z"/><path class="cls-3" d="M565.65,502.15a2.16,2.16,0,0,1-.08.71l-3.63,11.74-.78,2.52A7,7,0,0,1,559,520.5l-18.9,17.73a7.3,7.3,0,0,0-2.29,5.83l.16,2,1.26,21.27.08,1a5.13,5.13,0,0,1-.47,2.6,4.52,4.52,0,0,1-.79,1.26l-.24.23a3.44,3.44,0,0,1-1.18,1l-.08.08-7.4,4.25a7.17,7.17,0,0,0-3.63,6.22v6.54a7.26,7.26,0,0,1-2.28,5.36l-13,12.68-4.88,4.65a6.8,6.8,0,0,1-3.86,1.81l-11.82,1.34a3.9,3.9,0,0,1-4.25-3.08,164,164,0,0,0-7.64-25,108.13,108.13,0,0,0-6-12.76,7.81,7.81,0,0,1-.39-6.62l2.52-6.54c.08-.24.16-.55.24-.87a7.48,7.48,0,0,0-.48-4.88l-9.84-20a8.69,8.69,0,0,1-.63-5.83l.47-1.89.87-3.3a5.79,5.79,0,0,0-2.6-6.31,3.87,3.87,0,0,0-.71-.39c-.87-.39-2-.79-3-1.18s-2.29-.79-3.63-1.18c-.86-.24-1.89-.47-2.83-.71s-1.89-.39-2.84-.55-2.2-.32-3.39-.48c-.47,0-.86-.07-1.34-.07-1.18-.08-2.44-.16-3.7-.16a53.36,53.36,0,0,0-11.73,1.34l-1,.23-1.26.24c-.23,0-.55.08-.79.08a18.9,18.9,0,0,1-2.12-.16l-.32-.08-.79-.23-.7-.24a6,6,0,0,1-.95-.47,7.15,7.15,0,0,1-2.13-1.66l-.71-.78-.31-.32-4.1-4.33-3.7-3.86-5.75-6.07a9.38,9.38,0,0,1-.79-.94,9.24,9.24,0,0,1-1.57-3.62,7.77,7.77,0,0,1-.16-1.34v-.4a5,5,0,0,1,.16-1.57l1.65-10.32.48-2.92,1.1-6.38a10.82,10.82,0,0,1,1.81-4.57,13.34,13.34,0,0,1,2-2.28l9.69-8.74,11.34-10.24,5.91-5.28a1.42,1.42,0,0,1,.94-.39h30.8a1.43,1.43,0,0,1,1.42,1.49l-.16,3.78a4.13,4.13,0,0,0,2.44,3.86l8.35,3.63,7.64,3.3a.94.94,0,0,0,1.26-.47v-.08l2.21-5.59a2.67,2.67,0,0,1,3.31-1.5l1.26.4,16.14,5.35,4.57,1.58a6.14,6.14,0,0,1,3.39,2.76l5.44,9.13,10.16,16.94,9,15a6.36,6.36,0,0,0,6,3.08l14-1.11A1.61,1.61,0,0,1,565.65,502.15Z"/><path class="cls-1" d="M566.59,500.26a3.46,3.46,0,0,0-2.91-1.26l-13.94,1.18a4.73,4.73,0,0,1-3.39-1.1,3.54,3.54,0,0,1-1-1.18l-5.59-9.38-.31-.63-18.75-31.11a8.38,8.38,0,0,0-4.26-3.47l-22.05-7.24a4.38,4.38,0,0,0-5.36,2.44l-2,4.88-15.36-6.69a2.44,2.44,0,0,1-1.41-2.21l.15-3.78a3.16,3.16,0,0,0-3.07-3.23H436.55a2.8,2.8,0,0,0-2.05.79l-26.94,24.26a13.6,13.6,0,0,0-2.21,2.6,13.76,13.76,0,0,0-2.05,5.2l-1.65,9.77-.79,4.72-.47,2.92-.39,2a15.11,15.11,0,0,0-.16,2v.32a5.88,5.88,0,0,0,.24,1.65,9.62,9.62,0,0,0,1.57,3.86l.16.32.31.39.32.4.08.07.47.48,10.63,11.26,2.84,3,1,1.11a9.93,9.93,0,0,0,2.29,1.81l.23.16c.4.15.79.39,1.19.55l.55.23.94.24h0l.55.16a13.54,13.54,0,0,0,2.45.23,3.74,3.74,0,0,0,.94-.08l1.5-.23,1-.24a56.07,56.07,0,0,1,7.09-1.1,37.83,37.83,0,0,1,4.25-.16h1.34a13.71,13.71,0,0,1,1.81.08h.48l1.26.08c1.1.16,2.28.24,3.31.47l.47.08c.79.16,1.49.24,2.28.39.95.24,2,.48,2.76.71,1.26.4,2.44.71,3.54,1.11a29.17,29.17,0,0,1,2.92,1.18c.16.08.39.16.55.23a4.07,4.07,0,0,1,1.81,4.41l-1.34,5.2a10.78,10.78,0,0,0,.71,7l9.85,20.09a5.67,5.67,0,0,1,.39,3.78c-.08.16-.08.39-.16.55l-2.52,6.54a9.52,9.52,0,0,0,.55,8.11,99.17,99.17,0,0,1,5.83,12.53l.16.39c2.13,5.36,3.78,10.56,5,14.89h0l.08.16h0v.15c0,.08,0,.16.08.16h0c1.18,4,1.89,7.25,2.28,9.06a5.57,5.57,0,0,0,5.44,4.41H490l11.81-1.34a8.82,8.82,0,0,0,4.89-2.28l17.88-17.41a9.32,9.32,0,0,0,2.75-6.54v-6.54a5.49,5.49,0,0,1,2.76-4.72l7.41-4.26.23-.15a15.66,15.66,0,0,0,1.42-1.11,1.65,1.65,0,0,0,.39-.47,6.33,6.33,0,0,0,.95-1.57,7.08,7.08,0,0,0,.63-3.39l-1.34-22.06-.16-2a5.82,5.82,0,0,1,1.81-4.57l19.07-17.73a9.71,9.71,0,0,0,2.6-4.17l4.33-14.34A4.74,4.74,0,0,0,566.59,500.26Zm-30.48,44,1.49,24.1a4.56,4.56,0,0,1-.31,1.82,8.42,8.42,0,0,1-.47.78l-.24.24a3,3,0,0,1-.79.63l-7.48,4.33a9,9,0,0,0-4.49,7.64v6.54a5.93,5.93,0,0,1-1.73,4.18l-17.8,17.32a5.08,5.08,0,0,1-2.92,1.42l-11.81,1.34a2.2,2.2,0,0,1-2.45-1.73c-.55-2.6-1.81-8-3.86-14.49h0a3.24,3.24,0,0,0-.31-.87h0v-.08c-.08-.16-.08-.39-.16-.55-.94-2.92-2-6.07-3.31-9.3l-.15-.31a109.39,109.39,0,0,0-5.91-12.6,6,6,0,0,1-.32-5.2l2.6-6.62c.08-.31.24-.63.32-.94a8.84,8.84,0,0,0-.63-6l-9.85-20a7,7,0,0,1-.47-4.72l1.34-5.2a7.38,7.38,0,0,0-3.23-8,.59.59,0,0,0-.32-.15c-.23-.16-.47-.24-.71-.4-1.1-.47-2.12-.86-3.07-1.18s-2.36-.79-3.78-1.18c-.94-.24-2-.47-2.91-.71a3.33,3.33,0,0,0-.87-.16c-.63-.16-1.34-.23-2.05-.39l-2-.32-1.41-.15h-.24c-.47,0-.95-.08-1.42-.08-.94-.08-2.36-.16-3.86-.16h-2a56.21,56.21,0,0,0-10.24,1.34l-.94.23a4.62,4.62,0,0,1-1.1.16H425a3.94,3.94,0,0,1-1-.16l-.31-.07-.56-.16-.31-.16c-.08,0-.24-.08-.32-.08l-.15-.08c-.16-.08-.4-.15-.55-.23l-.24-.16a1.47,1.47,0,0,1-.39-.24,7.39,7.39,0,0,1-1.26-1l-.79-.87-3.23-3.38-10.64-11.11c-.15-.16-.23-.32-.39-.47l-.55-.63-.24-.48a7.46,7.46,0,0,1-.86-2.36,4.74,4.74,0,0,1-.08-1.1,5.81,5.81,0,0,1,.08-1.18.67.67,0,0,1,.07-.4l1.9-11,.39-2.13h0l1.1-6.3a9.78,9.78,0,0,1,1.58-3.86,12.68,12.68,0,0,1,1.65-2L436.78,441h30.48l-.15,3.54a5.71,5.71,0,0,0,3.38,5.44l15.92,6.93a2.35,2.35,0,0,0,2,0,2.58,2.58,0,0,0,1.5-1.5l2.21-5.59a.93.93,0,0,1,1.18-.55l22,7.25a5.63,5.63,0,0,1,2.52,2L535.48,488l.55.87,6.3,10.63a8.09,8.09,0,0,0,7.56,3.86l13.94-1.1-4.33,14.26a5.8,5.8,0,0,1-1.65,2.67l-19,17.81a9.55,9.55,0,0,0-2.76,7.32Zm27.8-41.9h0l1.58.47Z"/><path d="M561.16,577.61a21.62,21.62,0,0,1-2.29,6.38c-.31.63-.71,1.42-1.1,2.36-5,10.72-7.4,14.26-9.69,14.26a5.25,5.25,0,0,1-4.49-2.52c-2-3.07-1.65-8.43-.16-11.26.87-1.66,1.26-5.83,1.58-8.83.08-1.18.24-2.36.31-3.22a3.81,3.81,0,0,1,2.84-3.16,10.7,10.7,0,0,0,3.7-1.81,18.58,18.58,0,0,0,4.73-5.43,2.68,2.68,0,0,1,3.7-.87,2.32,2.32,0,0,1,1,1.1C562.5,567.06,562.5,571.15,561.16,577.61Z"/><path class="cls-1" d="M561.39,564.46a2.3,2.3,0,0,0-1-1.11,2.69,2.69,0,0,0-3.7.87,17.75,17.75,0,0,1-4.73,5.44,11.26,11.26,0,0,1-3.7,1.81,3.79,3.79,0,0,0-2.84,3.15c-.15.86-.23,2-.31,3.23-.32,3-.71,7.16-1.58,8.82-1.42,2.83-1.73,8.19.16,11.26a5,5,0,0,0,4.49,2.52c2.28,0,4.65-3.46,9.69-14.25.47-1,.79-1.74,1.1-2.37a20.11,20.11,0,0,0,2.29-6.38C562.5,571.15,562.5,567.06,561.39,564.46ZM558.32,577a21,21,0,0,1-2.05,5.67c-.31.71-.71,1.42-1.18,2.44-4.49,9.53-6.38,12.13-7.17,12.61a2.23,2.23,0,0,1-1.89-1.18c-1.26-2-1-6.31,0-8.43s1.5-6.23,1.81-9.85c.16-1.18.24-2.36.32-3.15a1,1,0,0,1,.63-.71l.08-.08c2.2-.55,6.38-2.28,10-8.19C559.5,568.08,559.34,571.78,558.32,577Z"/><path d="M415.83,490.18a1,1,0,0,1-.29-.71h0a1,1,0,0,1,.29-.7h0a1,1,0,0,1,.71-.3h0a1,1,0,0,1,.71.3h0a1,1,0,0,1,.29.7h0a1,1,0,0,1-.29.71h0a1,1,0,0,1-.71.29h0A1,1,0,0,1,415.83,490.18Z"/><path d="M417.82,486.86a1,1,0,0,1-.55-1.31h0a1,1,0,0,1,1.3-.55h0a1,1,0,0,1,.54,1.3h0a1,1,0,0,1-.91.62h0A1,1,0,0,1,417.82,486.86Zm2-5.05a1,1,0,0,1-.55-1.3h0a1,1,0,0,1,1.3-.55h0a1,1,0,0,1,.54,1.3h0a1,1,0,0,1-.91.62h0A1,1,0,0,1,419.86,481.81Z"/><path d="M456.57,504.5a1,1,0,0,1-.55-1.3h0a1,1,0,0,1,1.3-.55h0a1,1,0,0,1,.55,1.3h0a1,1,0,0,1-.93.62h0A1.06,1.06,0,0,1,456.57,504.5Zm2-5.05a1,1,0,0,1-.55-1.3h0a1,1,0,0,1,1.3-.55h0a1,1,0,0,1,.56,1.3h0a1,1,0,0,1-.93.63h0A1,1,0,0,1,458.61,499.45Z"/><path d="M422,475.77a1,1,0,0,1-.29-.71h0a1,1,0,0,1,.29-.71h0a1,1,0,0,1,.71-.29h0a.93.93,0,0,1,.69.29h0a1,1,0,0,1,.31.71h0a1,1,0,0,1-.31.71h0a1,1,0,0,1-.69.29h0A1,1,0,0,1,422,475.77Z"/><path d="M425,500.75a1,1,0,0,1,.86-1.12h0a1,1,0,0,1,1.12.86h0a1,1,0,0,1-.87,1.12H426A1,1,0,0,1,425,500.75Zm-.7-5.39a1,1,0,0,1,.86-1.12h0a1,1,0,0,1,1.12.86h0a1,1,0,0,1-.86,1.12h-.13A1,1,0,0,1,424.34,495.36Zm-.73-5.49h0a1,1,0,0,1,1-1h0a1,1,0,0,1,1,1h0a1,1,0,0,1-1,1h0A1,1,0,0,1,423.61,489.87Zm-.1-5.26a1,1,0,0,1,.79-1.17h0a1,1,0,0,1,1.17.79h0a1,1,0,0,1-.79,1.17h0l-.19,0h0A1,1,0,0,1,423.51,484.61Zm-1-5.35a1,1,0,0,1,.8-1.17h0a1,1,0,0,1,1.17.8h0a1,1,0,0,1-.81,1.17h0l-.18,0h0A1,1,0,0,1,422.49,479.26Z"/><path d="M452.84,504.82a1,1,0,0,1,.25-1.39h0a1,1,0,0,1,1.39.25h0a1,1,0,0,1-.25,1.39h0a1.07,1.07,0,0,1-.58.18h0A1,1,0,0,1,452.84,504.82Zm-3.12-4.46A1,1,0,0,1,450,499h0a1,1,0,0,1,1.39.25h0a1,1,0,0,1-.25,1.39h0a1,1,0,0,1-.57.18h0A1,1,0,0,1,449.72,500.36Zm-3.17-4.54h0a1,1,0,0,1,.39-1.36h0a1,1,0,0,1,1.36.4h0a1,1,0,0,1-.4,1.36h0a1,1,0,0,1-.47.12h0A1,1,0,0,1,446.55,495.82ZM444,491.2a1,1,0,0,1,.16-1.4h0a1,1,0,0,1,1.4.16h0a1,1,0,0,1-.15,1.41h0a1,1,0,0,1-.62.21h0A1,1,0,0,1,444,491.2Zm-3.38-4.26a1,1,0,0,1,.16-1.4h0a1,1,0,0,1,1.41.16h0a1,1,0,0,1-.16,1.4h0a1,1,0,0,1-.63.22h0A1,1,0,0,1,440.65,486.94Z"/><path d="M426.23,507.9a1,1,0,0,1-.29-.7h0a1,1,0,0,1,.29-.71h0a1,1,0,0,1,.71-.3h0a1,1,0,0,1,.71.3h0a1,1,0,0,1,.29.71h0a1,1,0,0,1-.29.7h0a1,1,0,0,1-.71.3h0A1,1,0,0,1,426.23,507.9Z"/><path d="M428.57,504.32a1,1,0,0,1-.49-1.32h0a1,1,0,0,1,1.32-.49h0a1,1,0,0,1,.5,1.32h0a1,1,0,0,1-.91.59h0A.9.9,0,0,1,428.57,504.32Zm2.26-4.95a1,1,0,0,1-.5-1.32h0a1,1,0,0,1,1.32-.5h0a1,1,0,0,1,.5,1.32h0a1,1,0,0,1-.91.59h0A1,1,0,0,1,430.83,499.37Z"/><path d="M433.79,492.54a1,1,0,0,1-.29-.7h0a1,1,0,0,1,.29-.71h0a1,1,0,0,1,.71-.29h0a1,1,0,0,1,.71.29h0a1,1,0,0,1,.29.71h0a1,1,0,0,1-.29.7h0a1,1,0,0,1-.71.3h0A1,1,0,0,1,433.79,492.54Z"/><path d="M437,489.21a1,1,0,0,1-.88-1.11h0a1,1,0,0,1,1.1-.88h0a1,1,0,0,1,.88,1.1h0a1,1,0,0,1-1,.89H437Z"/><path d="M437.88,484.82a1,1,0,0,1-.29-.7h0a1,1,0,0,1,.29-.71h0a1,1,0,0,1,.71-.29h0a1,1,0,0,1,.72.29h0a1,1,0,0,1,.28.71h0a1,1,0,0,1-.28.7h0a1,1,0,0,1-.72.3h0A1,1,0,0,1,437.88,484.82Z"/><g class="cls-4"><path class="cls-2" d="M540.42,685.07l-14.06-30.62,5.25-2.41,24.9,15.37-10.16-22.14,5.25-2.41,14.06,30.62-5.25,2.41-24.89-15.32,10.15,22.09Z"/></g><g class="cls-4"><path class="cls-2" d="M390.14,433.89a16.41,16.41,0,0,1-7.64,4.59,14.54,14.54,0,0,1-8.28-.35,22.14,22.14,0,0,1-12.9-12.83,14.64,14.64,0,0,1-.42-8.28,16.18,16.18,0,0,1,4.52-7.69,15.5,15.5,0,0,1,9-4.89,13.26,13.26,0,0,1,9.32,2.48l-4.48,4.5a7.82,7.82,0,0,0-5.11-1.2,8.75,8.75,0,0,0-5.1,2.8,10,10,0,0,0-2.81,4.91,9.42,9.42,0,0,0,.53,5.48,16,16,0,0,0,3.8,5.51,15.78,15.78,0,0,0,5.49,3.72,9.44,9.44,0,0,0,5.45.46,9.88,9.88,0,0,0,4.89-2.84,9.23,9.23,0,0,0,2.86-5,7.23,7.23,0,0,0-1-4.92l4.48-4.5a12.61,12.61,0,0,1,2.31,9A15.84,15.84,0,0,1,390.14,433.89Z"/></g><g class="cls-4"><path class="cls-2" d="M414.3,414.86a16.67,16.67,0,0,1-8.47,2.64,15.5,15.5,0,0,1-8.18-2.15,20.57,20.57,0,0,1-9.53-15.51,15.55,15.55,0,0,1,1.77-8.29,16.49,16.49,0,0,1,6.16-6.38,16.83,16.83,0,0,1,8.58-2.68,15.29,15.29,0,0,1,8.18,2.18,19.16,19.16,0,0,1,6.52,6.65,19.4,19.4,0,0,1,3,8.86,15.18,15.18,0,0,1-1.76,8.26A17.05,17.05,0,0,1,414.3,414.86Zm-2.68-4.45a10.71,10.71,0,0,0,4-4.2,9.66,9.66,0,0,0,1-5.53,17.13,17.13,0,0,0-6.86-11.16,9.67,9.67,0,0,0-5.36-1.65,11.54,11.54,0,0,0-9.6,5.9,9.76,9.76,0,0,0-1,5.54,16.9,16.9,0,0,0,6.85,11.16,9.81,9.81,0,0,0,5.39,1.64A10.72,10.72,0,0,0,411.62,410.41Z"/></g><g class="cls-4"><path class="cls-2" d="M428.76,405.25l-9.59-32.31,6.56-1.95,16.52,17.8,4.06-23.91,6.6-2,9.59,32.31L457,396.88l-6.77-22.8-3.71,21-4.34,1.28-14.6-15.5,6.76,22.75Z"/></g><g class="cls-4"><path class="cls-2" d="M464.25,395.06l-.55-33.7,6.84-.11,11.14,21.58L492,360.9l6.88-.11.55,33.7-5.78.09-.38-23.78L484.06,390l-4.53.07-9.89-18.86L470,395Z"/></g><g class="cls-4"><path class="cls-2" d="M501.75,395.58l7.17-32.93,21.26,4.63-1,4.57-15.62-3.41-2.06,9.46L525.72,381l-1,4.47-14.2-3.09-2.16,9.88,15.62,3.4-1,4.56Z"/></g><g class="cls-4"><path class="cls-2" d="M525.17,400.88l13.24-31,11.12,4.75a14.2,14.2,0,0,1,5.54,3.87,9.16,9.16,0,0,1,2.15,4.89,10.91,10.91,0,0,1-4,9.38,9.12,9.12,0,0,1-5,1.87,14.58,14.58,0,0,1-6.79-1.38l-5.67-2.42-5.26,12.3Zm12.26-14,5.44,2.32a6.35,6.35,0,0,0,5,.43,5.67,5.67,0,0,0,3-3.19,5.49,5.49,0,0,0,.21-4.28q-.78-2-3.79-3.27l-5.45-2.33Zm3.9,20.88-.66-16.46,5.75,2.46,1,16.59Z"/></g><g class="cls-4"><path class="cls-2" d="M560.75,420.14a16.43,16.43,0,0,1-5.81-6.81,14.49,14.49,0,0,1-1-8.25,22.34,22.34,0,0,1,10.56-14.92,14.77,14.77,0,0,1,8.14-1.8,16.4,16.4,0,0,1,8.37,3.2,15.56,15.56,0,0,1,6.33,8.12,13.26,13.26,0,0,1-.89,9.64l-5.21-3.68a7.88,7.88,0,0,0,.34-5.26,8.82,8.82,0,0,0-3.63-4.59,10,10,0,0,0-5.33-2,9.52,9.52,0,0,0-5.34,1.43,16.22,16.22,0,0,0-4.82,4.68,15.83,15.83,0,0,0-2.77,6.06,9.42,9.42,0,0,0,.45,5.47,9.91,9.91,0,0,0,3.63,4.38,9.27,9.27,0,0,0,5.46,2,7.25,7.25,0,0,0,4.69-1.86l5.21,3.69a12.69,12.69,0,0,1-8.58,3.79A15.86,15.86,0,0,1,560.75,420.14Z"/></g><g class="cls-4"><path class="cls-2" d="M573.8,429.53l24.6-22.91,14.8,15.88-3.41,3.18L598.92,414l-7.06,6.58,9.89,10.61-3.34,3.11-9.89-10.61-7.38,6.87L592,442.24l-3.41,3.18Z"/></g><g class="cls-4"><path class="cls-2" d="M375.81,655l18.28-22.36-7.63-6.24,2.94-3.6,19.68,16.11-2.94,3.59-7.63-6.25-18.29,22.36Z"/></g><g class="cls-4"><path class="cls-2" d="M394.13,668.92l16.18-29.66,10.63,5.8a14.17,14.17,0,0,1,5.17,4.39,9.13,9.13,0,0,1,1.67,5.09,10.9,10.9,0,0,1-4.86,9,9.08,9.08,0,0,1-5.21,1.39,14.4,14.4,0,0,1-6.65-2l-5.42-3-6.43,11.77Zm13.57-12.78,5.21,2.85a6.37,6.37,0,0,0,4.92.9,5.68,5.68,0,0,0,3.31-2.9,5.5,5.5,0,0,0,.62-4.25q-.58-2.06-3.47-3.62l-5.21-2.85Zm1.89,21.21.92-16.48,5.51,3-.62,16.65Z"/></g><g class="cls-4"><path class="cls-2" d="M421.16,683.14l21.4-28.8,6.19,1.83L451,692l-5.87-1.73-1.42-28.55-16.76,23.15Zm7.52-6.06,2.78-3.94,15.92,4.72.18,4.82Z"/></g><g class="cls-4"><path class="cls-2" d="M471.49,694.57a16.37,16.37,0,0,1-8.45-2.84,14.49,14.49,0,0,1-5.11-6.52,22.15,22.15,0,0,1,1.38-18.14,14.63,14.63,0,0,1,6-5.7,16.19,16.19,0,0,1,8.78-1.55,15.51,15.51,0,0,1,9.57,3.69,13.23,13.23,0,0,1,4.17,8.7l-6.34-.49a7.81,7.81,0,0,0-2.39-4.67,8.75,8.75,0,0,0-5.45-2,9.92,9.92,0,0,0-5.56,1,9.38,9.38,0,0,0-3.82,4,16,16,0,0,0-1.72,6.46,15.61,15.61,0,0,0,.73,6.59,9.55,9.55,0,0,0,3.18,4.45,9.93,9.93,0,0,0,5.34,1.87,9.17,9.17,0,0,0,5.68-1.09,7.12,7.12,0,0,0,3.06-4l6.34.48a12.61,12.61,0,0,1-5.39,7.63A15.7,15.7,0,0,1,471.49,694.57Z"/></g><g class="cls-4"><path class="cls-2" d="M494.73,694.47l-4.59-33.39,5.72-.78,1.89,13.78,10.7-15.52,7.11-1-10.53,15,15.4,18.38-7,1-11.89-14.4-2.8,4,1.67,12.16Z"/></g><g class="cls-4"><path class="cls-2" d="M526.37,688.89l-9.2-32.42,5.56-1.58,9.2,32.42Z"/></g><g class="cls-4"><path class="cls-2" d="M586.33,659.69a15.8,15.8,0,0,1-7.91,3.46,14.71,14.71,0,0,1-8.11-1.32,21.72,21.72,0,0,1-11.19-14.35,14.92,14.92,0,0,1,.73-8.47,17.25,17.25,0,0,1,5.68-7.3,16.09,16.09,0,0,1,9.41-3.8,12.84,12.84,0,0,1,8.79,3.05l-5.12,4a6.73,6.73,0,0,0-4.64-1.32,9.86,9.86,0,0,0-5.18,2.29,11.14,11.14,0,0,0-3.69,4.77,9.32,9.32,0,0,0-.3,5.62,15.53,15.53,0,0,0,3.05,6,15.33,15.33,0,0,0,5,4.36,9.19,9.19,0,0,0,5.43,1,10.46,10.46,0,0,0,5.24-2.3q3.71-2.91,4-6.48a11.69,11.69,0,0,0-2-7.17l-6.85,5.38L576,643.66l11.44-9,11.38,14.5-4.16,3.27-3.24-3.34a12.93,12.93,0,0,1-.26,3.8,10,10,0,0,1-1.58,3.49A15.34,15.34,0,0,1,586.33,659.69Z"/></g><path d="M422.76,469l.32.08a1.21,1.21,0,0,1,.86.63,1.54,1.54,0,0,1,.24.86,1.3,1.3,0,0,1-.24.79,5.94,5.94,0,0,1-.63.87l-.63.87h0l-1.18-1.66a2.44,2.44,0,0,1-.31-.71,1.49,1.49,0,0,1,1-1.73c.16,0,.24-.08.39-.08l.16.08Zm-1.1,1.57a1,1,0,1,0,1-1,1,1,0,0,0-1,1Z"/><path d="M415.44,490.89l.31.08a1.2,1.2,0,0,1,.87.63,1.62,1.62,0,0,1,.23.86,1.39,1.39,0,0,1-.23.79,6.79,6.79,0,0,1-.63.87l-.63.86h0l-1.19-1.65a3.13,3.13,0,0,1-.31-.71,1.51,1.51,0,0,1,1-1.73c.16,0,.24-.08.4-.08l.16.08Zm-1.19,1.57a1,1,0,1,0,2.05,0,1,1,0,0,0-1-1,1.17,1.17,0,0,0-1,1Z"/><path d="M460.18,490.41a.47.47,0,0,1,.31.08,1.26,1.26,0,0,1,.87.63,1.66,1.66,0,0,1,.23.87,1.41,1.41,0,0,1-.23.79,6.71,6.71,0,0,1-.63.86l-.63.87h0l-1.18-1.65a3,3,0,0,1-.32-.71,1.53,1.53,0,0,1,.08-1,1.33,1.33,0,0,1,.87-.71,3.2,3.2,0,0,1,.39-.07l.24.07ZM459.07,492a1,1,0,0,0,2.05,0h0a1,1,0,0,0-1-1,1,1,0,0,0-1,1Z"/><path d="M438.75,478.28l.32.08a1.25,1.25,0,0,1,.78.63,1.34,1.34,0,0,1,.24.79,1.26,1.26,0,0,1-.24.71,6.41,6.41,0,0,1-.55.79,5.39,5.39,0,0,1-.63.78h0c-.39-.47-.71-1-1.1-1.49a1.51,1.51,0,0,1-.32-.71,1.41,1.41,0,0,1,.16-.95,1.27,1.27,0,0,1,.79-.63c.08,0,.24-.07.31-.07l.24.07Zm-1,1.42a.95.95,0,1,0,.94-.94.91.91,0,0,0-.94.94Z"/><circle class="cls-2" cx="332.66" cy="527.73" r="8.59"/><circle class="cls-2" cx="632.4" cy="527.73" r="8.59"/></svg>